<svg xmlns="http://www.w3.org/2000/svg" viewBox="0 0 120 120" fill="none">
  <!-- Background circle -->
  <circle cx="60" cy="60" r="58" fill="#181f2a" stroke="#F25C05" stroke-width="2"/>

  <!-- Person head silhouette -->
  <circle cx="46" cy="42" r="14" fill="#F25C05"/>

  <!-- Person body/shoulders -->
  <path d="M24 82c0-12.15 9.85-22 22-22h0c12.15 0 22 9.85 22 22v4H24v-4z" fill="#F25C05"/>

  <!-- Sound waves emanating from mouth area -->
  <!-- Wave 1 (closest) -->
  <path d="M66 46c3.5-3 3.5-9 0-12" stroke="#F25C05" stroke-width="2.5" stroke-linecap="round" fill="none"/>

  <!-- Wave 2 (middle) -->
  <path d="M74 50c5.5-5 5.5-17 0-22" stroke="#F25C05" stroke-width="2.5" stroke-linecap="round" fill="none" opacity="0.7"/>

  <!-- Wave 3 (farthest) -->
  <path d="M82 54c7.5-7 7.5-25 0-32" stroke="#F25C05" stroke-width="2.5" stroke-linecap="round" fill="none" opacity="0.4"/>

  <!-- Small AI indicator dot cluster -->
  <circle cx="90" cy="74" r="2" fill="#22c55e"/>
  <circle cx="90" cy="82" r="2" fill="#22c55e" opacity="0.6"/>
  <circle cx="96" cy="78" r="2" fill="#22c55e" opacity="0.8"/>

  <!-- "AI" text badge -->
  <rect x="82" y="88" width="24" height="14" rx="7" fill="#F25C05"/>
  <text x="94" y="98" font-size="8" font-weight="bold" fill="#fff" text-anchor="middle" font-family="Arial, sans-serif">AI</text>
</svg>
