<svg width="148" height="40" viewBox="0 0 148 40" fill="none" xmlns="http://www.w3.org/2000/svg">
<path d="M147.284 20.1495C147.709 19.8494 147.972 19.3682 147.997 18.8459C148.022 18.3236 147.806 17.819 147.412 17.4789C146.399 16.5873 145.309 15.7848 144.156 15.0848C142.847 14.3287 141.186 14.6456 140.242 15.8316C138.486 18.0351 135.25 22.8368 129.425 25.9521C128.021 26.7011 129.806 28.2894 130.787 29.0362C131.123 29.2914 131.576 29.3275 131.948 29.1287C134.346 27.8358 143.349 22.9059 147.284 20.1495Z" fill="url(#paint0_linear_2225_1566)"/>
<path d="M141.533 33.8368C142.049 33.9262 142.575 33.7709 142.961 33.4187C143.347 33.0655 143.549 32.5547 143.51 32.0326C143.427 30.6821 143.223 29.3419 142.9 28.0286C142.502 26.5634 141.104 25.6097 139.607 25.7817C136.803 26.1126 131.112 27.2114 124.786 25.2877C123.261 24.8226 123.399 27.2148 123.563 28.4411C123.624 28.8615 123.921 29.2081 124.325 29.3286C126.943 30.1133 136.813 33.0029 141.533 33.8379V33.8368Z" fill="url(#paint1_linear_2225_1566)"/>
<path d="M127.814 39.2798C128.116 39.7081 128.598 39.9729 129.12 39.9979C129.643 40.0229 130.148 39.8054 130.489 39.4079C131.384 38.3976 132.188 37.3097 132.891 36.1569C133.645 34.8454 133.325 33.1764 132.139 32.2407C129.933 30.486 125.121 27.2539 122.004 21.4315C121.25 20.0243 119.662 21.8103 118.91 22.7929C118.655 23.1279 118.62 23.5826 118.822 23.9528C120.103 26.347 125.046 35.3514 127.814 39.2798Z" fill="url(#paint2_linear_2225_1566)"/>
<path d="M114.229 33.511C114.142 34.0244 114.295 34.5512 114.646 34.9363C114.996 35.3225 115.503 35.5256 116.021 35.4866C117.366 35.4007 118.701 35.1968 120.011 34.8772C121.46 34.4905 122.412 33.0901 122.247 31.5846C121.919 28.7775 120.825 23.0863 122.739 16.7623C123.199 15.2343 120.818 15.3761 119.597 15.5413C119.182 15.5961 118.837 15.8931 118.718 16.2991C117.936 18.9075 115.057 28.7741 114.229 33.5099V33.511Z" fill="url(#paint3_linear_2225_1566)"/>
<path d="M108.716 19.8502C108.291 20.1503 108.027 20.6315 108.002 21.1538C107.977 21.676 108.193 22.1806 108.587 22.5207C109.6 23.4123 110.689 24.2137 111.843 24.9148C113.152 25.6709 114.813 25.3539 115.757 24.168C117.513 21.9645 120.749 17.163 126.574 14.0478C127.979 13.2977 126.192 11.7094 125.213 10.9627C124.876 10.7078 124.423 10.6722 124.051 10.8713C121.654 12.1497 112.649 17.0838 108.716 19.8491V19.8502Z" fill="url(#paint4_linear_2225_1566)"/>
<path d="M114.467 6.2594C113.952 6.17108 113.426 6.32647 113.04 6.67861C112.654 7.03074 112.452 7.54162 112.491 8.06367C112.574 9.414 112.777 10.7541 113.098 12.068C113.497 13.5323 114.895 14.4855 116.392 14.3149C119.195 13.984 124.887 12.8863 131.215 14.809C132.74 15.2741 132.602 12.8829 132.438 11.6566C132.378 11.2357 132.08 10.8885 131.676 10.7679C129.077 9.98309 119.204 7.09334 114.468 6.2594H114.467Z" fill="url(#paint5_linear_2225_1566)"/>
<path d="M128.186 0.720092C127.883 0.291746 127.401 0.026951 126.879 0.00194248C126.356 -0.023066 125.851 0.194487 125.509 0.591968C124.615 1.60263 123.811 2.69093 123.107 3.8441C122.354 5.15534 122.674 6.82362 123.859 7.75913C126.066 9.51164 130.877 12.7459 133.995 18.5684C134.749 19.9755 136.338 18.1896 137.089 17.208C137.344 16.8723 137.378 16.4179 137.178 16.0471C135.886 13.654 130.947 4.64961 128.186 0.720092Z" fill="url(#paint6_linear_2225_1566)"/>
<path d="M139.1 17.3566C140.141 13.6022 141.294 9.20166 141.771 6.48558C141.858 5.972 141.705 5.44728 141.354 5.06181C141.003 4.67592 140.495 4.47354 139.976 4.51258C138.631 4.59836 137.295 4.80223 135.985 5.12086C134.534 5.5073 133.583 6.90565 133.748 8.40845C134.077 11.2092 135.171 16.8898 133.255 23.2021C133.226 23.2992 133.209 23.3994 133.203 23.5006C135.411 21.7039 137.392 19.6404 139.1 17.3566Z" fill="url(#paint7_linear_2225_1566)"/>
<path d="M71.295 11.4295V16.6988H64.5072C63.9595 16.6988 63.6808 16.5738 63.5443 16.4377C63.3271 16.1448 63.2266 15.7899 63.2574 15.4354L63.2593 15.4138V15.3921V8.50024H64.3629V14.8347C64.3463 14.9982 64.3611 15.1632 64.4065 15.3212C64.4553 15.4909 64.5381 15.6484 64.6495 15.785L64.6809 15.8237L64.7194 15.8553C64.8449 15.9585 64.9895 16.0358 65.1444 16.0833C65.2915 16.1284 65.4456 16.146 65.5989 16.1356H69.6807H70.1807V15.6356V11.4295H71.295ZM71.6561 17.0613L71.7054 17.189L71.6561 17.0613ZM93.8941 16.1356H94.3941V15.6356V13.5752C94.3941 12.9832 94.1163 12.5505 93.7004 12.2773C93.3149 12.0241 92.8313 11.9187 92.3868 11.8771C91.7319 11.816 91.0361 11.8838 90.5606 11.9527V11.5034C91.135 11.382 92.2674 11.1968 93.3158 11.3398C93.9421 11.4252 94.485 11.6209 94.8663 11.9656C95.2309 12.2953 95.5009 12.8092 95.5009 13.6564V16.6998H89.8694V16.1356H93.8941ZM71.6569 11.0673V11.0673Z" fill="white" stroke="white"/>
<mask id="path-10-inside-1_2225_1566" fill="white">
<path d="M67.8162 11.0712C68.0703 11.0334 68.3009 10.9058 68.4633 10.713C68.6257 10.5202 68.7085 10.2761 68.6955 10.0277C68.6808 9.77966 68.5719 9.54562 68.3896 9.3706C68.2073 9.19559 67.9645 9.09198 67.7079 9.07971C67.451 9.06576 67.1979 9.14416 66.9972 9.29981C66.7964 9.45547 66.6623 9.6774 66.6205 9.92294C66.5674 10.2413 66.6768 10.5628 66.9136 10.7908C67.1504 11.0168 67.487 11.1226 67.8162 11.0712ZM87.7884 17.0601V13.1624C87.7884 8.33508 81.6039 9.35599 80.5314 9.56757C80.5114 9.57094 80.4924 9.57857 80.4758 9.5899C80.4593 9.60123 80.4455 9.61597 80.4355 9.63308C80.4256 9.65018 80.4197 9.6692 80.4183 9.68878C80.4168 9.70836 80.4199 9.728 80.4273 9.74628L80.8308 10.9418C80.8405 10.9738 80.8622 11.0011 80.8917 11.0184C80.9212 11.0357 80.9563 11.0417 80.9901 11.0353L81.4435 10.9654C82.721 10.8144 85.671 10.7087 85.671 12.999V15.6356H84.0176V14.4811C84.0313 14.0202 83.9564 13.5609 83.7967 13.1264C83.6679 12.8153 83.4636 12.5388 83.201 12.3201C82.9484 12.1161 82.6521 11.9691 82.3334 11.8898C81.6549 11.7158 80.9412 11.7158 80.2627 11.8898C79.9348 11.9691 79.6311 12.1225 79.3765 12.3375C79.1219 12.5525 78.9238 12.8229 78.7984 13.1264C78.6412 13.5619 78.5658 14.02 78.5785 14.4821C78.5743 14.8714 78.6263 15.2596 78.7336 15.6356H76.4834C76.3863 15.644 76.2883 15.6336 76.1953 15.605C76.1024 15.5765 76.0162 15.5303 75.9419 15.4692C75.8727 15.3844 75.8218 15.2871 75.7919 15.1831C75.762 15.0791 75.7537 14.9703 75.7677 14.8632V8.13993C75.7677 8.1215 75.7639 8.10325 75.7566 8.08624C75.7493 8.06922 75.7385 8.05378 75.725 8.0408C75.7115 8.02781 75.6955 8.01754 75.6778 8.01058C75.6602 8.00363 75.6413 8.00011 75.6222 8.00025H73.8085C73.7704 8.00102 73.734 8.01596 73.7069 8.04196C73.6798 8.06796 73.6641 8.10304 73.663 8.13993V15.3921C73.6206 15.881 73.765 16.3679 74.0665 16.7623C74.3341 17.0529 74.7823 17.1988 75.4109 17.1988H87.644C87.6822 17.1985 87.7187 17.1837 87.7458 17.1576C87.7728 17.1314 87.7881 17.0961 87.7884 17.0591V17.0601ZM82.3175 15.6356H81.3087C80.6354 15.6356 80.3009 15.2596 80.2978 14.4811C80.2978 13.6964 80.6354 13.3267 81.3076 13.3267C81.9798 13.3267 82.3164 13.7026 82.3164 14.4811V15.6356H82.3175ZM2.24728 10.3071C2.50035 10.2693 2.72996 10.1421 2.89176 9.95014C3.05356 9.75818 3.13607 9.51503 3.12335 9.26766C3.10896 9.02009 3.0003 8.78644 2.81833 8.61176C2.63637 8.43709 2.39398 8.33377 2.13791 8.32172C1.88205 8.30803 1.62998 8.38622 1.43008 8.54128C1.23018 8.69634 1.09652 8.91734 1.05477 9.16188C1.02967 9.31809 1.04324 9.47784 1.09437 9.628C1.14551 9.77816 1.23275 9.91444 1.34892 10.0256C1.58466 10.2516 1.9181 10.3574 2.24728 10.3081V10.3071ZM4.73743 10.3071C4.98991 10.2681 5.21855 10.1401 5.37932 9.94786C5.54008 9.75558 5.62161 9.51256 5.60819 9.26561C5.59331 9.01857 5.48458 8.78555 5.30289 8.61133C5.12119 8.43711 4.87934 8.33397 4.62381 8.32172C4.36795 8.30803 4.11588 8.38622 3.91598 8.54128C3.71608 8.69634 3.58242 8.91734 3.54067 9.16188C3.51535 9.3185 3.52892 9.4787 3.58025 9.62925C3.63158 9.7798 3.7192 9.91638 3.83588 10.0277C4.07268 10.2537 4.40718 10.3584 4.73743 10.3081V10.3071ZM17.1999 18.0184C16.9459 18.0564 16.7156 18.1842 16.5534 18.3769C16.3912 18.5696 16.3086 18.8137 16.3217 19.0619C16.336 19.3101 16.4449 19.5444 16.6272 19.7196C16.8096 19.8949 17.0525 19.9986 17.3092 20.0109C17.5661 20.0246 17.8191 19.9459 18.0196 19.7901C18.2201 19.6342 18.354 19.4122 18.3955 19.1667C18.4208 19.0101 18.4073 18.85 18.3562 18.6995C18.3051 18.549 18.2177 18.4124 18.1014 18.3008C17.9844 18.1886 17.8417 18.1046 17.6849 18.0555C17.5281 18.0065 17.3616 17.9937 17.1988 18.0184H17.1999ZM6.41204 22.0856H4.51974C4.49946 22.0824 4.47868 22.0839 4.4591 22.0899C4.43953 22.096 4.42173 22.1065 4.40718 22.1205C4.39284 22.1343 4.38209 22.1512 4.37581 22.1697C4.36953 22.1883 4.36791 22.2081 4.37108 22.2274V28.4258C4.40506 28.8777 4.26701 29.3255 3.98348 29.686C3.84395 29.8326 3.67248 29.9473 3.48149 30.0219C3.29049 30.0965 3.08474 30.1291 2.87911 30.1174C2.62622 30.1203 2.37706 30.0582 2.15702 29.9376C1.9652 29.8333 1.79143 29.7006 1.642 29.5443C1.63045 29.529 1.61589 29.5161 1.59917 29.5063C1.58244 29.4965 1.56388 29.49 1.54455 29.4871C1.52521 29.4842 1.50548 29.4851 1.48649 29.4896C1.4675 29.4941 1.44962 29.5022 1.43387 29.5135L0.049157 30.5323C0.0225502 30.5591 0.00769043 30.5948 0.00769043 30.632C0.00769043 30.6691 0.0225502 30.7048 0.049157 30.7316C0.327374 31.127 0.718152 31.4372 1.17477 31.6251C1.7089 31.8644 2.29294 31.9846 2.8823 31.9774C4.04295 31.9774 4.94981 31.6693 5.60075 31.0531C6.25382 30.4368 6.5777 29.5278 6.57664 28.3251V22.2274C6.57982 22.2066 6.5776 22.1854 6.57018 22.1657C6.56277 22.1459 6.55039 22.1283 6.53416 22.1144C6.51785 22.1002 6.49815 22.0902 6.47684 22.0851C6.45553 22.0801 6.43327 22.0803 6.41204 22.0856ZM13.3441 25.3435C13.0534 25.1204 12.715 24.9629 12.3534 24.8824C11.8641 24.7745 11.3631 24.7248 10.8614 24.7345C10.3364 24.7252 9.81274 24.7874 9.30571 24.9193C8.90413 25.0252 8.52369 25.1953 8.1801 25.4226C8.16196 25.4313 8.14608 25.4438 8.13364 25.4593C8.1212 25.4747 8.11252 25.4927 8.10823 25.5119C8.10395 25.531 8.10417 25.5508 8.10889 25.5699C8.11362 25.5889 8.12271 25.6067 8.1355 25.6219L8.80768 26.7527C8.8544 26.8287 8.92024 26.8379 8.99882 26.7804C9.20058 26.6469 9.42146 26.5442 9.65614 26.4764C9.96281 26.3869 10.282 26.3443 10.6023 26.3501C11.0069 26.3114 11.4142 26.3901 11.7725 26.576C11.8801 26.6632 11.9649 26.7738 12.0199 26.8988C12.0749 27.0237 12.0986 27.1595 12.0889 27.295V27.5528C12.09 27.5646 12.0882 27.5764 12.0838 27.5874C12.0794 27.5985 12.0724 27.6084 12.0635 27.6164C12.0545 27.6244 12.0439 27.6304 12.0324 27.6339C12.0208 27.6375 12.0086 27.6385 11.9966 27.637H10.7159C9.95348 27.6038 9.19836 27.7931 8.54858 28.1803C8.27585 28.3696 8.05781 28.6234 7.91523 28.9174C7.77265 29.2113 7.7103 29.5357 7.7341 29.8596C7.72455 30.1883 7.79038 30.5149 7.92737 30.8168C8.0463 31.0726 8.2247 31.2975 8.45088 31.4742C8.67601 31.6508 8.93723 31.7813 9.21757 31.8562C9.5149 31.9363 9.82285 31.9774 10.1319 31.9774C10.5513 31.9918 10.9686 31.9209 11.3562 31.7689C11.6516 31.648 11.9116 31.4586 12.1134 31.2174V31.6775C12.1109 31.6968 12.1131 31.7164 12.1197 31.7347C12.1263 31.7531 12.1372 31.7697 12.1516 31.7833C12.1803 31.8121 12.2217 31.8244 12.262 31.8203H13.9186C13.9387 31.8227 13.9591 31.8206 13.9782 31.8142C13.9974 31.8078 14.0148 31.7972 14.029 31.7833C14.0432 31.7696 14.0539 31.7529 14.0604 31.7346C14.0668 31.7163 14.0688 31.6967 14.0662 31.6775V27.2375C14.0742 26.8591 14.0168 26.4821 13.8963 26.122C13.7901 25.8191 13.599 25.55 13.3441 25.3435ZM12.0826 29.5135C12.0826 30.1544 11.6355 30.4748 10.7414 30.4748C10.0437 30.4748 9.69649 30.2324 9.69649 29.7435C9.69649 29.2557 10.1234 28.9558 10.9782 28.9558H11.9902C12.0027 28.9542 12.0154 28.9554 12.0274 28.9593C12.0394 28.9632 12.0502 28.9697 12.0592 28.9784C12.0762 28.9958 12.0858 29.0194 12.0826 29.0441V29.5135ZM21.4273 24.8916H15.9882C15.9682 24.8891 15.9478 24.891 15.9287 24.8972C15.9096 24.9035 15.8922 24.9138 15.8778 24.9275C15.8633 24.9413 15.8523 24.9581 15.8456 24.9766C15.839 24.9951 15.8369 25.0149 15.8396 25.0344V26.3952C15.8371 26.4145 15.8393 26.4341 15.8459 26.4525C15.8525 26.4708 15.8634 26.4874 15.8778 26.501C15.9065 26.5288 15.9479 26.5421 15.9882 26.537H19.1176V26.5647L15.692 30.2437C15.6619 30.2869 15.6453 30.3375 15.6442 30.3896V31.6775C15.6414 31.6971 15.6434 31.7171 15.65 31.7358C15.6566 31.7546 15.6677 31.7715 15.6824 31.7854C15.7132 31.8131 15.7546 31.8264 15.796 31.8203H21.4273C21.4475 31.8235 21.4683 31.822 21.4879 31.816C21.5075 31.8099 21.5253 31.7994 21.5398 31.7854C21.5543 31.7715 21.5652 31.7545 21.5715 31.7357C21.5777 31.7169 21.5793 31.697 21.5759 31.6775V30.3115C21.5794 30.2919 21.578 30.2717 21.5717 30.2528C21.5654 30.2338 21.5545 30.2166 21.5398 30.2026C21.5252 30.1888 21.5073 30.1785 21.4878 30.1726C21.4682 30.1667 21.4475 30.1654 21.4273 30.1687H18.146V30.1379L21.5441 26.5318C21.5759 26.4908 21.5908 26.4394 21.5887 26.3881V25.0282C21.5914 25.0081 21.589 24.9876 21.5816 24.9686C21.5741 24.9496 21.562 24.9327 21.5462 24.9193C21.5303 24.9056 21.5111 24.8959 21.4903 24.891C21.4696 24.8862 21.4479 24.8864 21.4273 24.8916ZM29.4764 27.4829C29.4582 27.3363 29.4326 27.1907 29.4 27.0464C29.3724 26.9232 29.3373 26.7999 29.2959 26.6797C29.1058 26.094 28.7137 25.589 28.1852 25.249C27.5797 24.9136 26.894 24.7372 26.1962 24.7372C25.4985 24.7372 24.8128 24.9136 24.2073 25.249C23.6626 25.588 23.2633 26.1036 23.0817 26.7013C22.9984 26.9355 22.939 27.177 22.9044 27.4223C22.8608 27.7335 22.8406 28.0478 22.8438 28.3621C22.8403 28.6735 22.8626 28.9847 22.9107 29.2926C22.9511 29.535 23.0137 29.7754 23.0966 30.0075C23.2838 30.6086 23.6852 31.1261 24.2296 31.468C24.8485 31.8304 25.5635 32.0097 26.2865 31.9836C26.8926 31.9976 27.4954 31.8946 28.0599 31.6806C28.5483 31.4901 28.9898 31.202 29.3554 30.8353C29.4255 30.7686 29.4191 30.7018 29.3405 30.635L28.3561 29.7466C28.3073 29.6798 28.2383 29.6798 28.148 29.7466C27.9399 29.9387 27.6969 30.0919 27.4312 30.1985C27.1306 30.3147 26.8087 30.3706 26.4851 30.3629C26.1538 30.3721 25.8267 30.293 25.5389 30.1348C25.2775 29.9784 25.0862 29.7329 25.0027 29.4467C24.9495 29.3243 24.9182 29.1941 24.9103 29.0615C24.9088 29.0498 24.9102 29.0378 24.9142 29.0266C24.9183 29.0154 24.9249 29.0052 24.9336 28.9968C24.9426 28.9882 24.9535 28.9817 24.9654 28.9778C24.9774 28.9739 24.9901 28.9727 25.0027 28.9742H29.3692C29.4754 28.9742 29.5295 28.926 29.5295 28.8315V28.0653C29.5295 27.8496 29.504 27.6442 29.4764 27.4829ZM27.3877 27.6257H25.0059C24.9937 27.6271 24.9815 27.6259 24.9699 27.6221C24.9583 27.6184 24.9478 27.6123 24.939 27.6041C24.93 27.5961 24.923 27.5862 24.9186 27.5751C24.9142 27.5641 24.9124 27.5522 24.9135 27.5404C24.9135 27.448 24.9209 27.3545 24.9358 27.2621C24.9358 27.1799 24.9708 27.1009 24.9889 27.0228C25.063 26.7927 25.2187 26.5952 25.4285 26.4651C25.9032 26.198 26.4904 26.198 26.9651 26.4651C27.1742 26.5955 27.3293 26.7938 27.4036 27.0228C27.4217 27.1009 27.4408 27.1799 27.4567 27.2621C27.4716 27.3545 27.479 27.447 27.4779 27.5404C27.4792 27.5521 27.4778 27.5638 27.4738 27.5749C27.4697 27.5859 27.4632 27.5959 27.4546 27.6041C27.4457 27.6121 27.4351 27.618 27.4235 27.6216C27.4119 27.6251 27.3997 27.6262 27.3877 27.6247V27.6257ZM37.3292 27.4829C37.2955 27.2103 37.2351 26.9413 37.1486 26.6797C36.9588 26.0941 36.5671 25.5892 36.039 25.249C35.4333 24.9134 34.7475 24.7369 34.0495 24.7369C33.3515 24.7369 32.6657 24.9134 32.06 25.249C31.5163 25.589 31.1171 26.1036 30.9344 26.7013C30.8511 26.9355 30.7917 27.177 30.7571 27.4223C30.7135 27.7335 30.6934 28.0478 30.6976 28.3621C30.6937 28.6735 30.7157 28.9847 30.7635 29.2926C30.8038 29.535 30.8665 29.7754 30.9493 30.0075C31.1365 30.6086 31.5379 31.1261 32.0823 31.468C32.7014 31.8299 33.4163 32.0091 34.1392 31.9836C34.7453 31.9976 35.3482 31.8946 35.9126 31.6806C36.4014 31.4902 36.8433 31.2021 37.2092 30.8353C37.2782 30.7686 37.2729 30.7018 37.2092 30.635L36.2248 29.7466C36.1759 29.6798 36.108 29.6798 36.0167 29.7466C35.8092 29.938 35.5674 30.0911 35.3031 30.1985C35.0026 30.3138 34.6812 30.3697 34.358 30.3629C34.0256 30.3721 33.6985 30.293 33.4108 30.1348C33.1494 29.9784 32.958 29.7329 32.8745 29.4467C32.8213 29.3243 32.7901 29.1941 32.7821 29.0615C32.7808 29.0497 32.7823 29.0377 32.7866 29.0264C32.7908 29.0152 32.7976 29.0051 32.8065 28.9968C32.8154 28.9884 32.8261 28.982 32.8379 28.978C32.8496 28.9741 32.8621 28.9728 32.8745 28.9742H37.241C37.3472 28.9742 37.4046 28.926 37.4046 28.8315C37.4046 28.5285 37.4046 28.2799 37.3886 28.0653C37.3738 27.8496 37.3483 27.6442 37.3292 27.4829ZM35.2404 27.6257H32.8586C32.8465 27.6271 32.8342 27.6259 32.8226 27.6221C32.8111 27.6184 32.8005 27.6123 32.7917 27.6041C32.7829 27.596 32.7762 27.586 32.7719 27.575C32.7677 27.564 32.7661 27.5521 32.7673 27.5404C32.7662 27.3653 32.7912 27.191 32.8416 27.0228C32.9158 26.7927 33.0714 26.5952 33.2812 26.4651C33.7559 26.198 34.3431 26.198 34.8178 26.4651C35.027 26.5955 35.1831 26.7938 35.2563 27.0228C35.3072 27.1913 35.3326 27.366 35.3317 27.5415C35.3326 27.5528 35.3308 27.5643 35.3266 27.5749C35.3224 27.5855 35.3158 27.5952 35.3073 27.6031C35.2986 27.6114 35.2881 27.6178 35.2765 27.6217C35.2649 27.6256 35.2526 27.6269 35.2404 27.6257ZM43.5784 24.8557C43.3545 24.7851 43.1205 24.7491 42.885 24.7488C42.4894 24.7384 42.097 24.8194 41.7403 24.9851C41.4355 25.1299 41.1807 25.3569 41.0076 25.6373V25.0498C41.0104 25.0302 41.0084 25.0102 41.0018 24.9914C40.9951 24.9727 40.984 24.9557 40.9693 24.9419C40.9547 24.9281 40.9368 24.9177 40.9173 24.9117C40.8978 24.9056 40.8771 24.904 40.8568 24.907H39.0707C39.0504 24.904 39.0297 24.9056 39.0102 24.9117C38.9906 24.9177 38.9728 24.9281 38.9581 24.9419C38.9433 24.9557 38.932 24.9726 38.9251 24.9913C38.9183 25.01 38.9161 25.0301 38.9188 25.0498V31.6929C38.9161 31.7126 38.9183 31.7327 38.9251 31.7514C38.932 31.7701 38.9433 31.787 38.9581 31.8008C38.9878 31.8285 39.0293 31.8419 39.0707 31.8347H40.8568C40.877 31.8378 40.8976 31.8363 40.9172 31.8305C40.9367 31.8246 40.9546 31.8144 40.9693 31.8008C40.984 31.7869 40.9951 31.77 41.0018 31.7513C41.0084 31.7325 41.0104 31.7125 41.0076 31.6929V28.0262C40.9842 27.6462 41.0777 27.2662 41.2762 26.9375C41.3722 26.8067 41.4997 26.7005 41.6478 26.6282C41.7959 26.5559 41.9599 26.5196 42.1258 26.5226C42.4953 26.5206 42.8585 26.6253 43.1664 26.8256C43.2344 26.8667 43.3236 26.8564 43.3777 26.7979L44.2103 25.3374C44.231 25.3049 44.2379 25.2659 44.2296 25.2285C44.2213 25.1912 44.1984 25.1584 44.1657 25.1371C43.9909 25.0075 43.7919 24.9119 43.5795 24.8557H43.5784ZM50.211 25.3435C49.9204 25.1204 49.5819 24.9629 49.2203 24.8824C48.7321 24.7747 48.2321 24.725 47.7315 24.7345C47.2055 24.7252 46.6808 24.7874 46.1726 24.9193C45.7711 25.0252 45.3906 25.1953 45.047 25.4226C45.0289 25.4313 45.013 25.4438 45.0006 25.4593C44.9881 25.4747 44.9794 25.4927 44.9752 25.5119C44.9709 25.531 44.9711 25.5508 44.9758 25.5699C44.9805 25.5889 44.9896 25.6067 45.0024 25.6219L45.6746 26.7527C45.7213 26.8287 45.7882 26.8379 45.8658 26.7804C46.0675 26.6469 46.2894 26.5442 46.5231 26.4764C46.8297 26.3869 47.149 26.3443 47.4692 26.3501C47.8742 26.3112 48.2819 26.3899 48.6405 26.576C48.7479 26.6633 48.8325 26.7739 48.8873 26.8989C48.9422 27.0238 48.9656 27.1596 48.9559 27.295V27.5528C48.9569 27.5646 48.9551 27.5764 48.9507 27.5874C48.9463 27.5985 48.9393 27.6084 48.9304 27.6164C48.9216 27.6243 48.9112 27.6301 48.8998 27.6337C48.8884 27.6372 48.8764 27.6384 48.8646 27.637H47.5818C46.8197 27.604 46.065 27.7933 45.4155 28.1803C44.8506 28.5665 44.5373 29.2074 44.5872 29.8709C44.5787 30.1995 44.6435 30.5272 44.7805 30.8291C44.8994 31.0839 45.0778 31.3098 45.304 31.4865C45.5291 31.6631 45.7904 31.7936 46.0707 31.8686C46.368 31.9487 46.676 31.9897 46.9861 31.9897C47.4044 32.0041 47.8218 31.9322 48.2104 31.7802C48.5058 31.6593 48.7658 31.4698 48.9676 31.2287V31.6898C48.9649 31.7091 48.9669 31.7286 48.9734 31.7469C48.9798 31.7653 48.9906 31.7819 49.0047 31.7956C49.0334 31.8234 49.0748 31.8367 49.1152 31.8326H50.7717C50.7918 31.835 50.8122 31.8329 50.8314 31.8265C50.8505 31.8201 50.8679 31.8095 50.8822 31.7956C50.8965 31.782 50.9074 31.7654 50.9141 31.7471C50.9207 31.7287 50.9229 31.7091 50.9204 31.6898V27.2375C50.9284 26.8591 50.871 26.4821 50.7505 26.122C50.6463 25.8201 50.4595 25.5511 50.21 25.3435H50.211ZM48.9495 29.5135C48.9495 30.1544 48.5024 30.4748 47.6083 30.4748C46.9107 30.4748 46.5645 30.2324 46.5645 29.7435C46.5645 29.2557 46.9892 28.9558 47.8451 28.9558H48.8582C48.8705 28.9543 48.8831 28.9556 48.8948 28.9596C48.9066 28.9635 48.9173 28.9699 48.9261 28.9784C48.9442 28.9958 48.9527 29.0194 48.9495 29.0441V29.5135ZM62.9899 22.9586C62.6661 22.6737 62.2861 22.455 61.8728 22.3157C61.3985 22.156 60.8989 22.0782 60.3967 22.0856H56.4614C56.4413 22.0831 56.421 22.085 56.4018 22.0912C56.3827 22.0975 56.3653 22.1078 56.3509 22.1216C56.3368 22.1353 56.326 22.1519 56.3196 22.1703C56.3131 22.1886 56.3111 22.2081 56.3138 22.2274V31.6775C56.3111 31.6967 56.3131 31.7163 56.3196 31.7346C56.326 31.7529 56.3368 31.7696 56.3509 31.7833C56.3796 31.8121 56.421 31.8244 56.4614 31.8203H58.3547C58.3748 31.8227 58.3952 31.8206 58.4144 31.8142C58.4335 31.8078 58.4509 31.7972 58.4652 31.7833C58.4795 31.7697 58.4904 31.7531 58.4971 31.7347C58.5037 31.7164 58.5059 31.6968 58.5034 31.6775V28.4258C58.5022 28.4141 58.5038 28.4023 58.5081 28.3912C58.5123 28.3802 58.519 28.3703 58.5278 28.3621C58.5367 28.3542 58.5473 28.3482 58.5589 28.3446C58.5705 28.3411 58.5827 28.34 58.5947 28.3416H60.3957C60.898 28.3477 61.3981 28.2707 61.8717 28.1136C62.2835 27.9728 62.6617 27.7531 62.9835 27.4675C63.2872 27.1902 63.5251 26.8533 63.6844 26.4795C63.849 26.0789 63.9307 25.6506 63.9265 25.2192C63.9325 24.784 63.8521 24.3516 63.6897 23.9457C63.5341 23.5707 63.2948 23.2337 62.9888 22.9586H62.9899ZM61.3493 26.1734C61.0477 26.4209 60.659 26.5462 60.2629 26.5226H58.5947C58.5342 26.5226 58.5034 26.4949 58.5034 26.4374V23.9888C58.5034 23.9313 58.5352 23.9036 58.5947 23.9036H60.2629C60.6601 23.8799 61.0509 24.0083 61.3493 24.261C61.6126 24.5136 61.7538 24.8618 61.7369 25.2192C61.7549 25.5756 61.6137 25.9238 61.3493 26.1744V26.1734ZM70.2554 25.3435C69.9631 25.121 69.6238 24.9636 69.2615 24.8824C68.7733 24.7745 68.2733 24.7248 67.7727 24.7345C67.2467 24.7254 66.722 24.7876 66.2138 24.9193C65.8126 25.0245 65.4327 25.1946 65.0903 25.4226C65.0723 25.4314 65.0565 25.444 65.0442 25.4595C65.0318 25.475 65.0233 25.493 65.0191 25.5121C65.0149 25.5312 65.0152 25.551 65.02 25.57C65.0248 25.589 65.034 25.6067 65.0468 25.6219L65.7158 26.7527C65.7657 26.8287 65.8294 26.8379 65.9112 26.7804C66.1113 26.6452 66.333 26.5425 66.5674 26.4764C66.8733 26.387 67.194 26.3429 67.5136 26.3501C67.9192 26.3121 68.3259 26.3911 68.6838 26.576C68.7914 26.6632 68.8762 26.7738 68.9312 26.8988C68.9862 27.0237 69.0099 27.1595 69.0002 27.295V27.5528C69.0018 27.5644 69.0004 27.5762 68.9964 27.5873C68.9923 27.5984 68.9856 27.6083 68.9769 27.6164C68.9682 27.6244 68.9578 27.6304 68.9464 27.634C68.935 27.6375 68.9229 27.6386 68.911 27.637H67.6304C66.868 27.6038 66.1128 27.7931 65.4631 28.1803C64.8981 28.5665 64.5838 29.2074 64.6327 29.8709C64.6242 30.1995 64.6911 30.5282 64.8291 30.8291C64.947 31.0839 65.1264 31.3088 65.3494 31.4865C65.5724 31.657 65.8294 31.7823 66.1034 31.8562C66.4018 31.9374 66.7108 31.9774 67.0219 31.9774C67.4392 31.9918 67.8555 31.9199 68.2431 31.7689C68.5394 31.648 68.8005 31.4587 69.0034 31.2174H69.0183V31.6775C69.0158 31.6968 69.018 31.7164 69.0246 31.7347C69.0312 31.7531 69.0422 31.7697 69.0565 31.7833C69.0852 31.8121 69.1266 31.8244 69.167 31.8203H70.8363C70.8565 31.8233 70.8772 31.8217 70.8968 31.8156C70.9163 31.8096 70.9341 31.7992 70.9488 31.7854C70.9635 31.7715 70.9746 31.7546 70.9812 31.7358C70.9879 31.7171 70.9899 31.6971 70.987 31.6775V27.2375C70.9941 26.8589 70.9356 26.4819 70.814 26.122C70.7061 25.8174 70.5127 25.5478 70.2554 25.3435ZM68.9939 29.5135C68.9939 30.1533 68.5479 30.4748 67.6527 30.4748C66.9582 30.4748 66.612 30.2324 66.612 29.7435C66.612 29.2557 67.0368 28.9558 67.8927 28.9558H68.9047C68.9652 28.9558 68.9939 28.9866 68.9939 29.0441V29.5135ZM72.8985 22.0856H74.8024C74.8523 22.0856 74.8938 22.1246 74.8938 22.1729V23.7012C74.8938 23.7128 74.8914 23.7242 74.8868 23.7349C74.8822 23.7455 74.8755 23.7552 74.867 23.7633C74.8585 23.7714 74.8484 23.7778 74.8373 23.7822C74.8262 23.7865 74.8144 23.7887 74.8024 23.7885H72.8985C72.8745 23.7885 72.8516 23.7793 72.8346 23.7629C72.8177 23.7466 72.8082 23.7244 72.8082 23.7012V22.1729C72.8082 22.1246 72.8485 22.0856 72.8985 22.0856ZM72.8985 24.8916H74.8024C74.8523 24.8916 74.8938 24.9306 74.8938 24.9799V31.732C74.8939 31.7436 74.8916 31.7551 74.8871 31.7659C74.8826 31.7767 74.8758 31.7865 74.8673 31.7947C74.8588 31.8029 74.8487 31.8095 74.8375 31.8138C74.8264 31.8182 74.8145 31.8204 74.8024 31.8203H72.8985C72.8865 31.8203 72.8747 31.818 72.8637 31.8135C72.8526 31.8091 72.8427 31.8026 72.8343 31.7944C72.8259 31.7861 72.8192 31.7764 72.8148 31.7657C72.8103 31.755 72.8081 31.7435 72.8082 31.732V24.9799C72.8082 24.9306 72.8485 24.8916 72.8985 24.8916ZM82.5702 25.4616C82.3582 25.2297 82.0936 25.0483 81.7971 24.9317C81.4597 24.8028 81.0991 24.7399 80.7363 24.7468C80.3385 24.7323 79.9427 24.8097 79.582 24.9727C79.305 25.1052 79.063 25.2974 78.8748 25.5346H78.8599V25.0467C78.8626 25.0272 78.8605 25.0075 78.8539 24.9889C78.8472 24.9704 78.8362 24.9536 78.8217 24.9399C78.8073 24.9262 78.7899 24.9158 78.7708 24.9096C78.7517 24.9033 78.7313 24.9014 78.7113 24.9039H76.922C76.902 24.9014 76.8816 24.9033 76.8625 24.9096C76.8433 24.9158 76.8259 24.9262 76.8115 24.9399C76.7972 24.9537 76.7864 24.9705 76.78 24.9891C76.7735 25.0076 76.7716 25.0273 76.7744 25.0467V31.6898C76.7718 31.7091 76.7738 31.7286 76.7802 31.7469C76.7867 31.7653 76.7974 31.7819 76.8115 31.7956C76.8402 31.8234 76.8816 31.8367 76.922 31.8326H78.724C78.7441 31.835 78.7645 31.8329 78.7837 31.8265C78.8028 31.8201 78.8202 31.8095 78.8345 31.7956C78.8486 31.7819 78.8594 31.7653 78.8658 31.7469C78.8722 31.7286 78.8742 31.7091 78.8716 31.6898V27.6945C78.8573 27.3666 78.9638 27.0445 79.1721 26.7855C79.2748 26.671 79.4032 26.5806 79.5475 26.5213C79.6917 26.462 79.8481 26.4354 80.0047 26.4435C80.163 26.432 80.3219 26.457 80.4683 26.5165C80.6147 26.576 80.7444 26.6682 80.8468 26.7855C81.04 27.0526 81.1366 27.371 81.1218 27.6955V31.6775C81.119 31.6971 81.121 31.7171 81.1276 31.7358C81.1342 31.7546 81.1453 31.7715 81.16 31.7854C81.1897 31.8131 81.2322 31.8264 81.2726 31.8203H83.0587C83.079 31.8233 83.0997 31.8217 83.1192 31.8156C83.1387 31.8096 83.1565 31.7992 83.1712 31.7854C83.1861 31.7716 83.1974 31.7547 83.2042 31.736C83.2111 31.7172 83.2132 31.6972 83.2105 31.6775V27.3104C83.2141 26.956 83.1607 26.6033 83.0523 26.2648C82.9506 25.9678 82.7864 25.6944 82.5702 25.4616ZM88.2492 24.8916H87.3254C87.3129 24.8932 87.3001 24.892 87.2882 24.888C87.2762 24.8841 87.2653 24.8776 87.2564 24.869C87.2476 24.8607 87.241 24.8505 87.2369 24.8393C87.2329 24.8281 87.2315 24.8161 87.233 24.8043V22.9453C87.2361 22.9258 87.2344 22.906 87.2282 22.8872C87.2219 22.8685 87.2112 22.8515 87.1969 22.8374C87.1824 22.8232 87.1647 22.8125 87.1451 22.8061C87.1256 22.7997 87.1048 22.7977 87.0843 22.8005H85.311C85.2907 22.7979 85.2701 22.7999 85.2507 22.8063C85.2314 22.8127 85.2139 22.8234 85.1995 22.8374C85.185 22.8516 85.1742 22.8688 85.168 22.8877C85.1617 22.9066 85.1601 22.9267 85.1634 22.9463V24.8043C85.1634 24.8618 85.1347 24.8916 85.0752 24.8916H84.6271C84.6068 24.8884 84.586 24.8898 84.5665 24.8959C84.5469 24.902 84.5291 24.9125 84.5145 24.9265C84.5 24.9404 84.4892 24.9574 84.4829 24.9762C84.4766 24.995 84.4751 25.0149 84.4784 25.0344V26.2227C84.4753 26.242 84.4769 26.2617 84.4832 26.2803C84.4894 26.2989 84.5002 26.3158 84.5145 26.3295C84.5443 26.3583 84.5857 26.3706 84.6271 26.3644H85.0752C85.1347 26.3644 85.1634 26.3952 85.1634 26.4528V29.6018C85.1634 30.3916 85.3365 30.9729 85.6837 31.3478C86.0309 31.7196 86.6309 31.9045 87.4571 31.9045H88.2492C88.2693 31.907 88.2896 31.9051 88.3088 31.8989C88.3279 31.8926 88.3453 31.8823 88.3597 31.8686C88.3738 31.8549 88.3846 31.8382 88.391 31.8199C88.3975 31.8015 88.3995 31.782 88.3968 31.7628V30.3444C88.3996 30.325 88.3977 30.3053 88.3913 30.2867C88.3848 30.2682 88.374 30.2514 88.3597 30.2376C88.3453 30.2238 88.3279 30.2135 88.3088 30.2072C88.2896 30.201 88.2693 30.1991 88.2492 30.2016H87.8893C87.7989 30.2109 87.7075 30.2022 87.6208 30.1761C87.534 30.1499 87.4538 30.1069 87.3848 30.0496C87.2663 29.8957 87.2121 29.7043 87.233 29.5135V26.4528C87.2314 26.4408 87.2326 26.4286 87.2367 26.4172C87.2408 26.4058 87.2475 26.3955 87.2564 26.387C87.2652 26.3786 87.2759 26.3721 87.2877 26.3682C87.2994 26.3643 87.312 26.363 87.3243 26.3644H88.2482C88.2685 26.3677 88.2892 26.3662 88.3088 26.3601C88.3284 26.354 88.3462 26.3436 88.3607 26.3295C88.3751 26.3158 88.3858 26.2989 88.3921 26.2803C88.3984 26.2617 88.4 26.242 88.3968 26.2227V25.0344C88.3996 25.015 88.3977 24.9953 88.3913 24.9767C88.3848 24.9582 88.374 24.9414 88.3597 24.9275C88.3453 24.9138 88.3279 24.9035 88.3088 24.8972C88.2896 24.891 88.2693 24.8891 88.2492 24.8916ZM93.5969 27.4952L92.808 27.41C92.5277 27.4066 92.2521 27.3401 92.003 27.2159C91.9404 27.1737 91.8897 27.117 91.8556 27.051C91.8214 26.9849 91.805 26.9117 91.8077 26.8379C91.8066 26.7561 91.8265 26.6753 91.8656 26.6027C91.9047 26.5301 91.9618 26.468 92.0317 26.4219C92.2388 26.3038 92.4788 26.2484 92.7198 26.2648C93.0841 26.2628 93.4472 26.3182 93.7923 26.4312C94.1003 26.5267 94.3944 26.6582 94.6695 26.8215C94.6846 26.8338 94.7022 26.8429 94.7212 26.8482C94.7401 26.8535 94.76 26.855 94.7796 26.8525C94.7992 26.85 94.818 26.8435 94.8349 26.8336C94.8517 26.8237 94.8663 26.8104 94.8776 26.7948L95.7144 25.8067C95.7286 25.7919 95.7396 25.7743 95.7466 25.7552C95.7535 25.7361 95.7563 25.7158 95.7549 25.6955C95.7534 25.6753 95.7476 25.6556 95.7379 25.6376C95.7282 25.6196 95.7148 25.6038 95.6984 25.591C95.3141 25.3246 94.8877 25.12 94.4358 24.9851C93.8965 24.8181 93.3328 24.7366 92.7665 24.7437C91.8214 24.7437 91.0919 24.9399 90.5737 25.3497C90.0598 25.74 89.772 26.3449 89.8017 26.9735C89.7852 27.2466 89.8305 27.5199 89.9344 27.7743C90.0384 28.0287 90.1986 28.258 90.4038 28.4463C90.9007 28.8386 91.5152 29.0651 92.156 29.0924L92.9598 29.1776C93.2486 29.1807 93.5332 29.2526 93.786 29.3861C93.9155 29.4785 93.9909 29.6254 93.9877 29.7805C93.9873 29.8756 93.9616 29.9691 93.9131 30.0518C93.8645 30.1345 93.7948 30.2038 93.7106 30.253C93.4557 30.3926 93.1637 30.4573 92.8717 30.4378C92.4796 30.4355 92.0909 30.3677 91.7227 30.2376C91.3421 30.1072 90.9854 29.9189 90.6661 29.6798C90.6525 29.6658 90.6361 29.6546 90.6178 29.6469C90.5995 29.6393 90.5798 29.6353 90.5599 29.6353C90.54 29.6353 90.5203 29.6393 90.5021 29.6469C90.4838 29.6546 90.4673 29.6658 90.4537 29.6798L89.4853 30.7234C89.4692 30.7352 89.4562 30.7506 89.4472 30.7681C89.4383 30.7857 89.4336 30.805 89.4336 30.8245C89.4336 30.8441 89.4383 30.8634 89.4472 30.881C89.4562 30.8985 89.4692 30.9138 89.4853 30.9257C89.8877 31.241 90.338 31.4947 90.8201 31.6775C91.4413 31.9035 92.1029 32.0134 92.7665 31.999C93.7976 31.999 94.5898 31.7813 95.1431 31.3468C95.4112 31.1415 95.6267 30.879 95.7728 30.5799C95.9188 30.2808 95.9915 29.9531 95.9852 29.6223C95.995 29.3596 95.9508 29.0976 95.8549 28.8516C95.759 28.6056 95.6134 28.3806 95.4266 28.1896C95.0624 27.8054 94.4528 27.5733 93.5969 27.4952ZM60.8725 17.0601V11.0681C60.8729 11.0496 60.8695 11.0312 60.8623 11.0141C60.8551 10.9969 60.8444 10.9814 60.8307 10.9684C60.8171 10.9554 60.8009 10.9452 60.783 10.9386C60.7652 10.9319 60.7461 10.9288 60.727 10.9295H58.9101C58.8911 10.9293 58.8723 10.9328 58.8547 10.9397C58.8372 10.9466 58.8212 10.9568 58.8077 10.9697C58.7942 10.9825 58.7834 10.9979 58.776 11.0148C58.7686 11.0317 58.7648 11.0498 58.7646 11.0681V15.6356H52.5876C52.4897 15.6444 52.391 15.6342 52.2973 15.6056C52.2036 15.577 52.1167 15.5307 52.0417 15.4692C51.9036 15.2972 51.8411 15.0795 51.8676 14.8632V11.9709C51.8676 11.9529 51.8639 11.9351 51.8567 11.9184C51.8496 11.9018 51.8391 11.8867 51.8259 11.874C51.8126 11.8613 51.7969 11.8512 51.7797 11.8444C51.7624 11.8376 51.7439 11.8342 51.7253 11.8343H49.9084C49.8895 11.8339 49.8708 11.8372 49.8532 11.8438C49.8356 11.8505 49.8196 11.8605 49.8061 11.8732C49.7926 11.8859 49.7818 11.9011 49.7743 11.9179C49.7669 11.9346 49.7631 11.9527 49.7629 11.9709V15.3808C49.7204 15.8687 49.8638 16.3566 50.1664 16.7499C50.4351 17.0529 50.8832 17.1864 51.5076 17.1864H60.7397C60.7741 17.1845 60.8066 17.1705 60.831 17.1471C60.8555 17.1236 60.8702 17.0923 60.8725 17.0591V17.0601ZM54.2367 11.0712C54.4908 11.0339 54.7216 10.9067 54.8844 10.7144C55.0472 10.522 55.1304 10.2781 55.1181 10.0298C55.1042 9.78134 54.9957 9.54668 54.8136 9.37105C54.6314 9.19542 54.3884 9.09127 54.1316 9.07868C53.8745 9.06477 53.6213 9.1433 53.4205 9.29917C53.2198 9.45504 53.0857 9.67722 53.0442 9.92294C53.0185 10.0793 53.0315 10.2394 53.0823 10.3899C53.1331 10.5404 53.2201 10.6771 53.3362 10.7888C53.4529 10.9008 53.5952 10.9847 53.7516 11.0338C53.9081 11.0829 54.0742 11.0957 54.2367 11.0712ZM56.7268 11.0712C56.9807 11.0332 57.2111 10.9054 57.3733 10.7127C57.5355 10.52 57.618 10.2759 57.605 10.0277C57.5904 9.77966 57.4814 9.54562 57.2991 9.3706C57.1168 9.19559 56.874 9.09198 56.6175 9.07971C56.3608 9.06602 56.1079 9.14454 55.9074 9.30017C55.7069 9.4558 55.5729 9.67759 55.5311 9.92294C55.478 10.2413 55.5874 10.5628 55.8232 10.7908C56.06 11.0168 56.3966 11.1226 56.7258 11.0712H56.7268ZM42.3647 8.00127H44.292C44.3409 8.00127 44.3812 8.0403 44.3812 8.08755V17.1135C44.3812 17.1364 44.3718 17.1584 44.3551 17.1745C44.3384 17.1907 44.3157 17.1998 44.292 17.1998H42.3647C42.3412 17.1995 42.3188 17.1903 42.3023 17.1742C42.2858 17.158 42.2765 17.1362 42.2765 17.1135V8.08858C42.2765 8.04133 42.3158 8.0023 42.3647 8.0023V8.00127Z"/>
</mask>
<path d="M67.8162 11.0712C68.0703 11.0334 68.3009 10.9058 68.4633 10.713C68.6257 10.5202 68.7085 10.2761 68.6955 10.0277C68.6808 9.77966 68.5719 9.54562 68.3896 9.3706C68.2073 9.19559 67.9645 9.09198 67.7079 9.07971C67.451 9.06576 67.1979 9.14416 66.9972 9.29981C66.7964 9.45547 66.6623 9.6774 66.6205 9.92294C66.5674 10.2413 66.6768 10.5628 66.9136 10.7908C67.1504 11.0168 67.487 11.1226 67.8162 11.0712ZM87.7884 17.0601V13.1624C87.7884 8.33508 81.6039 9.35599 80.5314 9.56757C80.5114 9.57094 80.4924 9.57857 80.4758 9.5899C80.4593 9.60123 80.4455 9.61597 80.4355 9.63308C80.4256 9.65018 80.4197 9.6692 80.4183 9.68878C80.4168 9.70836 80.4199 9.728 80.4273 9.74628L80.8308 10.9418C80.8405 10.9738 80.8622 11.0011 80.8917 11.0184C80.9212 11.0357 80.9563 11.0417 80.9901 11.0353L81.4435 10.9654C82.721 10.8144 85.671 10.7087 85.671 12.999V15.6356H84.0176V14.4811C84.0313 14.0202 83.9564 13.5609 83.7967 13.1264C83.6679 12.8153 83.4636 12.5388 83.201 12.3201C82.9484 12.1161 82.6521 11.9691 82.3334 11.8898C81.6549 11.7158 80.9412 11.7158 80.2627 11.8898C79.9348 11.9691 79.6311 12.1225 79.3765 12.3375C79.1219 12.5525 78.9238 12.8229 78.7984 13.1264C78.6412 13.5619 78.5658 14.02 78.5785 14.4821C78.5743 14.8714 78.6263 15.2596 78.7336 15.6356H76.4834C76.3863 15.644 76.2883 15.6336 76.1953 15.605C76.1024 15.5765 76.0162 15.5303 75.9419 15.4692C75.8727 15.3844 75.8218 15.2871 75.7919 15.1831C75.762 15.0791 75.7537 14.9703 75.7677 14.8632V8.13993C75.7677 8.1215 75.7639 8.10325 75.7566 8.08624C75.7493 8.06922 75.7385 8.05378 75.725 8.0408C75.7115 8.02781 75.6955 8.01754 75.6778 8.01058C75.6602 8.00363 75.6413 8.00011 75.6222 8.00025H73.8085C73.7704 8.00102 73.734 8.01596 73.7069 8.04196C73.6798 8.06796 73.6641 8.10304 73.663 8.13993V15.3921C73.6206 15.881 73.765 16.3679 74.0665 16.7623C74.3341 17.0529 74.7823 17.1988 75.4109 17.1988H87.644C87.6822 17.1985 87.7187 17.1837 87.7458 17.1576C87.7728 17.1314 87.7881 17.0961 87.7884 17.0591V17.0601ZM82.3175 15.6356H81.3087C80.6354 15.6356 80.3009 15.2596 80.2978 14.4811C80.2978 13.6964 80.6354 13.3267 81.3076 13.3267C81.9798 13.3267 82.3164 13.7026 82.3164 14.4811V15.6356H82.3175ZM2.24728 10.3071C2.50035 10.2693 2.72996 10.1421 2.89176 9.95014C3.05356 9.75818 3.13607 9.51503 3.12335 9.26766C3.10896 9.02009 3.0003 8.78644 2.81833 8.61176C2.63637 8.43709 2.39398 8.33377 2.13791 8.32172C1.88205 8.30803 1.62998 8.38622 1.43008 8.54128C1.23018 8.69634 1.09652 8.91734 1.05477 9.16188C1.02967 9.31809 1.04324 9.47784 1.09437 9.628C1.14551 9.77816 1.23275 9.91444 1.34892 10.0256C1.58466 10.2516 1.9181 10.3574 2.24728 10.3081V10.3071ZM4.73743 10.3071C4.98991 10.2681 5.21855 10.1401 5.37932 9.94786C5.54008 9.75558 5.62161 9.51256 5.60819 9.26561C5.59331 9.01857 5.48458 8.78555 5.30289 8.61133C5.12119 8.43711 4.87934 8.33397 4.62381 8.32172C4.36795 8.30803 4.11588 8.38622 3.91598 8.54128C3.71608 8.69634 3.58242 8.91734 3.54067 9.16188C3.51535 9.3185 3.52892 9.4787 3.58025 9.62925C3.63158 9.7798 3.7192 9.91638 3.83588 10.0277C4.07268 10.2537 4.40718 10.3584 4.73743 10.3081V10.3071ZM17.1999 18.0184C16.9459 18.0564 16.7156 18.1842 16.5534 18.3769C16.3912 18.5696 16.3086 18.8137 16.3217 19.0619C16.336 19.3101 16.4449 19.5444 16.6272 19.7196C16.8096 19.8949 17.0525 19.9986 17.3092 20.0109C17.5661 20.0246 17.8191 19.9459 18.0196 19.7901C18.2201 19.6342 18.354 19.4122 18.3955 19.1667C18.4208 19.0101 18.4073 18.85 18.3562 18.6995C18.3051 18.549 18.2177 18.4124 18.1014 18.3008C17.9844 18.1886 17.8417 18.1046 17.6849 18.0555C17.5281 18.0065 17.3616 17.9937 17.1988 18.0184H17.1999ZM6.41204 22.0856H4.51974C4.49946 22.0824 4.47868 22.0839 4.4591 22.0899C4.43953 22.096 4.42173 22.1065 4.40718 22.1205C4.39284 22.1343 4.38209 22.1512 4.37581 22.1697C4.36953 22.1883 4.36791 22.2081 4.37108 22.2274V28.4258C4.40506 28.8777 4.26701 29.3255 3.98348 29.686C3.84395 29.8326 3.67248 29.9473 3.48149 30.0219C3.29049 30.0965 3.08474 30.1291 2.87911 30.1174C2.62622 30.1203 2.37706 30.0582 2.15702 29.9376C1.9652 29.8333 1.79143 29.7006 1.642 29.5443C1.63045 29.529 1.61589 29.5161 1.59917 29.5063C1.58244 29.4965 1.56388 29.49 1.54455 29.4871C1.52521 29.4842 1.50548 29.4851 1.48649 29.4896C1.4675 29.4941 1.44962 29.5022 1.43387 29.5135L0.049157 30.5323C0.0225502 30.5591 0.00769043 30.5948 0.00769043 30.632C0.00769043 30.6691 0.0225502 30.7048 0.049157 30.7316C0.327374 31.127 0.718152 31.4372 1.17477 31.6251C1.7089 31.8644 2.29294 31.9846 2.8823 31.9774C4.04295 31.9774 4.94981 31.6693 5.60075 31.0531C6.25382 30.4368 6.5777 29.5278 6.57664 28.3251V22.2274C6.57982 22.2066 6.5776 22.1854 6.57018 22.1657C6.56277 22.1459 6.55039 22.1283 6.53416 22.1144C6.51785 22.1002 6.49815 22.0902 6.47684 22.0851C6.45553 22.0801 6.43327 22.0803 6.41204 22.0856ZM13.3441 25.3435C13.0534 25.1204 12.715 24.9629 12.3534 24.8824C11.8641 24.7745 11.3631 24.7248 10.8614 24.7345C10.3364 24.7252 9.81274 24.7874 9.30571 24.9193C8.90413 25.0252 8.52369 25.1953 8.1801 25.4226C8.16196 25.4313 8.14608 25.4438 8.13364 25.4593C8.1212 25.4747 8.11252 25.4927 8.10823 25.5119C8.10395 25.531 8.10417 25.5508 8.10889 25.5699C8.11362 25.5889 8.12271 25.6067 8.1355 25.6219L8.80768 26.7527C8.8544 26.8287 8.92024 26.8379 8.99882 26.7804C9.20058 26.6469 9.42146 26.5442 9.65614 26.4764C9.96281 26.3869 10.282 26.3443 10.6023 26.3501C11.0069 26.3114 11.4142 26.3901 11.7725 26.576C11.8801 26.6632 11.9649 26.7738 12.0199 26.8988C12.0749 27.0237 12.0986 27.1595 12.0889 27.295V27.5528C12.09 27.5646 12.0882 27.5764 12.0838 27.5874C12.0794 27.5985 12.0724 27.6084 12.0635 27.6164C12.0545 27.6244 12.0439 27.6304 12.0324 27.6339C12.0208 27.6375 12.0086 27.6385 11.9966 27.637H10.7159C9.95348 27.6038 9.19836 27.7931 8.54858 28.1803C8.27585 28.3696 8.05781 28.6234 7.91523 28.9174C7.77265 29.2113 7.7103 29.5357 7.7341 29.8596C7.72455 30.1883 7.79038 30.5149 7.92737 30.8168C8.0463 31.0726 8.2247 31.2975 8.45088 31.4742C8.67601 31.6508 8.93723 31.7813 9.21757 31.8562C9.5149 31.9363 9.82285 31.9774 10.1319 31.9774C10.5513 31.9918 10.9686 31.9209 11.3562 31.7689C11.6516 31.648 11.9116 31.4586 12.1134 31.2174V31.6775C12.1109 31.6968 12.1131 31.7164 12.1197 31.7347C12.1263 31.7531 12.1372 31.7697 12.1516 31.7833C12.1803 31.8121 12.2217 31.8244 12.262 31.8203H13.9186C13.9387 31.8227 13.9591 31.8206 13.9782 31.8142C13.9974 31.8078 14.0148 31.7972 14.029 31.7833C14.0432 31.7696 14.0539 31.7529 14.0604 31.7346C14.0668 31.7163 14.0688 31.6967 14.0662 31.6775V27.2375C14.0742 26.8591 14.0168 26.4821 13.8963 26.122C13.7901 25.8191 13.599 25.55 13.3441 25.3435ZM12.0826 29.5135C12.0826 30.1544 11.6355 30.4748 10.7414 30.4748C10.0437 30.4748 9.69649 30.2324 9.69649 29.7435C9.69649 29.2557 10.1234 28.9558 10.9782 28.9558H11.9902C12.0027 28.9542 12.0154 28.9554 12.0274 28.9593C12.0394 28.9632 12.0502 28.9697 12.0592 28.9784C12.0762 28.9958 12.0858 29.0194 12.0826 29.0441V29.5135ZM21.4273 24.8916H15.9882C15.9682 24.8891 15.9478 24.891 15.9287 24.8972C15.9096 24.9035 15.8922 24.9138 15.8778 24.9275C15.8633 24.9413 15.8523 24.9581 15.8456 24.9766C15.839 24.9951 15.8369 25.0149 15.8396 25.0344V26.3952C15.8371 26.4145 15.8393 26.4341 15.8459 26.4525C15.8525 26.4708 15.8634 26.4874 15.8778 26.501C15.9065 26.5288 15.9479 26.5421 15.9882 26.537H19.1176V26.5647L15.692 30.2437C15.6619 30.2869 15.6453 30.3375 15.6442 30.3896V31.6775C15.6414 31.6971 15.6434 31.7171 15.65 31.7358C15.6566 31.7546 15.6677 31.7715 15.6824 31.7854C15.7132 31.8131 15.7546 31.8264 15.796 31.8203H21.4273C21.4475 31.8235 21.4683 31.822 21.4879 31.816C21.5075 31.8099 21.5253 31.7994 21.5398 31.7854C21.5543 31.7715 21.5652 31.7545 21.5715 31.7357C21.5777 31.7169 21.5793 31.697 21.5759 31.6775V30.3115C21.5794 30.2919 21.578 30.2717 21.5717 30.2528C21.5654 30.2338 21.5545 30.2166 21.5398 30.2026C21.5252 30.1888 21.5073 30.1785 21.4878 30.1726C21.4682 30.1667 21.4475 30.1654 21.4273 30.1687H18.146V30.1379L21.5441 26.5318C21.5759 26.4908 21.5908 26.4394 21.5887 26.3881V25.0282C21.5914 25.0081 21.589 24.9876 21.5816 24.9686C21.5741 24.9496 21.562 24.9327 21.5462 24.9193C21.5303 24.9056 21.5111 24.8959 21.4903 24.891C21.4696 24.8862 21.4479 24.8864 21.4273 24.8916ZM29.4764 27.4829C29.4582 27.3363 29.4326 27.1907 29.4 27.0464C29.3724 26.9232 29.3373 26.7999 29.2959 26.6797C29.1058 26.094 28.7137 25.589 28.1852 25.249C27.5797 24.9136 26.894 24.7372 26.1962 24.7372C25.4985 24.7372 24.8128 24.9136 24.2073 25.249C23.6626 25.588 23.2633 26.1036 23.0817 26.7013C22.9984 26.9355 22.939 27.177 22.9044 27.4223C22.8608 27.7335 22.8406 28.0478 22.8438 28.3621C22.8403 28.6735 22.8626 28.9847 22.9107 29.2926C22.9511 29.535 23.0137 29.7754 23.0966 30.0075C23.2838 30.6086 23.6852 31.1261 24.2296 31.468C24.8485 31.8304 25.5635 32.0097 26.2865 31.9836C26.8926 31.9976 27.4954 31.8946 28.0599 31.6806C28.5483 31.4901 28.9898 31.202 29.3554 30.8353C29.4255 30.7686 29.4191 30.7018 29.3405 30.635L28.3561 29.7466C28.3073 29.6798 28.2383 29.6798 28.148 29.7466C27.9399 29.9387 27.6969 30.0919 27.4312 30.1985C27.1306 30.3147 26.8087 30.3706 26.4851 30.3629C26.1538 30.3721 25.8267 30.293 25.5389 30.1348C25.2775 29.9784 25.0862 29.7329 25.0027 29.4467C24.9495 29.3243 24.9182 29.1941 24.9103 29.0615C24.9088 29.0498 24.9102 29.0378 24.9142 29.0266C24.9183 29.0154 24.9249 29.0052 24.9336 28.9968C24.9426 28.9882 24.9535 28.9817 24.9654 28.9778C24.9774 28.9739 24.9901 28.9727 25.0027 28.9742H29.3692C29.4754 28.9742 29.5295 28.926 29.5295 28.8315V28.0653C29.5295 27.8496 29.504 27.6442 29.4764 27.4829ZM27.3877 27.6257H25.0059C24.9937 27.6271 24.9815 27.6259 24.9699 27.6221C24.9583 27.6184 24.9478 27.6123 24.939 27.6041C24.93 27.5961 24.923 27.5862 24.9186 27.5751C24.9142 27.5641 24.9124 27.5522 24.9135 27.5404C24.9135 27.448 24.9209 27.3545 24.9358 27.2621C24.9358 27.1799 24.9708 27.1009 24.9889 27.0228C25.063 26.7927 25.2187 26.5952 25.4285 26.4651C25.9032 26.198 26.4904 26.198 26.9651 26.4651C27.1742 26.5955 27.3293 26.7938 27.4036 27.0228C27.4217 27.1009 27.4408 27.1799 27.4567 27.2621C27.4716 27.3545 27.479 27.447 27.4779 27.5404C27.4792 27.5521 27.4778 27.5638 27.4738 27.5749C27.4697 27.5859 27.4632 27.5959 27.4546 27.6041C27.4457 27.6121 27.4351 27.618 27.4235 27.6216C27.4119 27.6251 27.3997 27.6262 27.3877 27.6247V27.6257ZM37.3292 27.4829C37.2955 27.2103 37.2351 26.9413 37.1486 26.6797C36.9588 26.0941 36.5671 25.5892 36.039 25.249C35.4333 24.9134 34.7475 24.7369 34.0495 24.7369C33.3515 24.7369 32.6657 24.9134 32.06 25.249C31.5163 25.589 31.1171 26.1036 30.9344 26.7013C30.8511 26.9355 30.7917 27.177 30.7571 27.4223C30.7135 27.7335 30.6934 28.0478 30.6976 28.3621C30.6937 28.6735 30.7157 28.9847 30.7635 29.2926C30.8038 29.535 30.8665 29.7754 30.9493 30.0075C31.1365 30.6086 31.5379 31.1261 32.0823 31.468C32.7014 31.8299 33.4163 32.0091 34.1392 31.9836C34.7453 31.9976 35.3482 31.8946 35.9126 31.6806C36.4014 31.4902 36.8433 31.2021 37.2092 30.8353C37.2782 30.7686 37.2729 30.7018 37.2092 30.635L36.2248 29.7466C36.1759 29.6798 36.108 29.6798 36.0167 29.7466C35.8092 29.938 35.5674 30.0911 35.3031 30.1985C35.0026 30.3138 34.6812 30.3697 34.358 30.3629C34.0256 30.3721 33.6985 30.293 33.4108 30.1348C33.1494 29.9784 32.958 29.7329 32.8745 29.4467C32.8213 29.3243 32.7901 29.1941 32.7821 29.0615C32.7808 29.0497 32.7823 29.0377 32.7866 29.0264C32.7908 29.0152 32.7976 29.0051 32.8065 28.9968C32.8154 28.9884 32.8261 28.982 32.8379 28.978C32.8496 28.9741 32.8621 28.9728 32.8745 28.9742H37.241C37.3472 28.9742 37.4046 28.926 37.4046 28.8315C37.4046 28.5285 37.4046 28.2799 37.3886 28.0653C37.3738 27.8496 37.3483 27.6442 37.3292 27.4829ZM35.2404 27.6257H32.8586C32.8465 27.6271 32.8342 27.6259 32.8226 27.6221C32.8111 27.6184 32.8005 27.6123 32.7917 27.6041C32.7829 27.596 32.7762 27.586 32.7719 27.575C32.7677 27.564 32.7661 27.5521 32.7673 27.5404C32.7662 27.3653 32.7912 27.191 32.8416 27.0228C32.9158 26.7927 33.0714 26.5952 33.2812 26.4651C33.7559 26.198 34.3431 26.198 34.8178 26.4651C35.027 26.5955 35.1831 26.7938 35.2563 27.0228C35.3072 27.1913 35.3326 27.366 35.3317 27.5415C35.3326 27.5528 35.3308 27.5643 35.3266 27.5749C35.3224 27.5855 35.3158 27.5952 35.3073 27.6031C35.2986 27.6114 35.2881 27.6178 35.2765 27.6217C35.2649 27.6256 35.2526 27.6269 35.2404 27.6257ZM43.5784 24.8557C43.3545 24.7851 43.1205 24.7491 42.885 24.7488C42.4894 24.7384 42.097 24.8194 41.7403 24.9851C41.4355 25.1299 41.1807 25.3569 41.0076 25.6373V25.0498C41.0104 25.0302 41.0084 25.0102 41.0018 24.9914C40.9951 24.9727 40.984 24.9557 40.9693 24.9419C40.9547 24.9281 40.9368 24.9177 40.9173 24.9117C40.8978 24.9056 40.8771 24.904 40.8568 24.907H39.0707C39.0504 24.904 39.0297 24.9056 39.0102 24.9117C38.9906 24.9177 38.9728 24.9281 38.9581 24.9419C38.9433 24.9557 38.932 24.9726 38.9251 24.9913C38.9183 25.01 38.9161 25.0301 38.9188 25.0498V31.6929C38.9161 31.7126 38.9183 31.7327 38.9251 31.7514C38.932 31.7701 38.9433 31.787 38.9581 31.8008C38.9878 31.8285 39.0293 31.8419 39.0707 31.8347H40.8568C40.877 31.8378 40.8976 31.8363 40.9172 31.8305C40.9367 31.8246 40.9546 31.8144 40.9693 31.8008C40.984 31.7869 40.9951 31.77 41.0018 31.7513C41.0084 31.7325 41.0104 31.7125 41.0076 31.6929V28.0262C40.9842 27.6462 41.0777 27.2662 41.2762 26.9375C41.3722 26.8067 41.4997 26.7005 41.6478 26.6282C41.7959 26.5559 41.9599 26.5196 42.1258 26.5226C42.4953 26.5206 42.8585 26.6253 43.1664 26.8256C43.2344 26.8667 43.3236 26.8564 43.3777 26.7979L44.2103 25.3374C44.231 25.3049 44.2379 25.2659 44.2296 25.2285C44.2213 25.1912 44.1984 25.1584 44.1657 25.1371C43.9909 25.0075 43.7919 24.9119 43.5795 24.8557H43.5784ZM50.211 25.3435C49.9204 25.1204 49.5819 24.9629 49.2203 24.8824C48.7321 24.7747 48.2321 24.725 47.7315 24.7345C47.2055 24.7252 46.6808 24.7874 46.1726 24.9193C45.7711 25.0252 45.3906 25.1953 45.047 25.4226C45.0289 25.4313 45.013 25.4438 45.0006 25.4593C44.9881 25.4747 44.9794 25.4927 44.9752 25.5119C44.9709 25.531 44.9711 25.5508 44.9758 25.5699C44.9805 25.5889 44.9896 25.6067 45.0024 25.6219L45.6746 26.7527C45.7213 26.8287 45.7882 26.8379 45.8658 26.7804C46.0675 26.6469 46.2894 26.5442 46.5231 26.4764C46.8297 26.3869 47.149 26.3443 47.4692 26.3501C47.8742 26.3112 48.2819 26.3899 48.6405 26.576C48.7479 26.6633 48.8325 26.7739 48.8873 26.8989C48.9422 27.0238 48.9656 27.1596 48.9559 27.295V27.5528C48.9569 27.5646 48.9551 27.5764 48.9507 27.5874C48.9463 27.5985 48.9393 27.6084 48.9304 27.6164C48.9216 27.6243 48.9112 27.6301 48.8998 27.6337C48.8884 27.6372 48.8764 27.6384 48.8646 27.637H47.5818C46.8197 27.604 46.065 27.7933 45.4155 28.1803C44.8506 28.5665 44.5373 29.2074 44.5872 29.8709C44.5787 30.1995 44.6435 30.5272 44.7805 30.8291C44.8994 31.0839 45.0778 31.3098 45.304 31.4865C45.5291 31.6631 45.7904 31.7936 46.0707 31.8686C46.368 31.9487 46.676 31.9897 46.9861 31.9897C47.4044 32.0041 47.8218 31.9322 48.2104 31.7802C48.5058 31.6593 48.7658 31.4698 48.9676 31.2287V31.6898C48.9649 31.7091 48.9669 31.7286 48.9734 31.7469C48.9798 31.7653 48.9906 31.7819 49.0047 31.7956C49.0334 31.8234 49.0748 31.8367 49.1152 31.8326H50.7717C50.7918 31.835 50.8122 31.8329 50.8314 31.8265C50.8505 31.8201 50.8679 31.8095 50.8822 31.7956C50.8965 31.782 50.9074 31.7654 50.9141 31.7471C50.9207 31.7287 50.9229 31.7091 50.9204 31.6898V27.2375C50.9284 26.8591 50.871 26.4821 50.7505 26.122C50.6463 25.8201 50.4595 25.5511 50.21 25.3435H50.211ZM48.9495 29.5135C48.9495 30.1544 48.5024 30.4748 47.6083 30.4748C46.9107 30.4748 46.5645 30.2324 46.5645 29.7435C46.5645 29.2557 46.9892 28.9558 47.8451 28.9558H48.8582C48.8705 28.9543 48.8831 28.9556 48.8948 28.9596C48.9066 28.9635 48.9173 28.9699 48.9261 28.9784C48.9442 28.9958 48.9527 29.0194 48.9495 29.0441V29.5135ZM62.9899 22.9586C62.6661 22.6737 62.2861 22.455 61.8728 22.3157C61.3985 22.156 60.8989 22.0782 60.3967 22.0856H56.4614C56.4413 22.0831 56.421 22.085 56.4018 22.0912C56.3827 22.0975 56.3653 22.1078 56.3509 22.1216C56.3368 22.1353 56.326 22.1519 56.3196 22.1703C56.3131 22.1886 56.3111 22.2081 56.3138 22.2274V31.6775C56.3111 31.6967 56.3131 31.7163 56.3196 31.7346C56.326 31.7529 56.3368 31.7696 56.3509 31.7833C56.3796 31.8121 56.421 31.8244 56.4614 31.8203H58.3547C58.3748 31.8227 58.3952 31.8206 58.4144 31.8142C58.4335 31.8078 58.4509 31.7972 58.4652 31.7833C58.4795 31.7697 58.4904 31.7531 58.4971 31.7347C58.5037 31.7164 58.5059 31.6968 58.5034 31.6775V28.4258C58.5022 28.4141 58.5038 28.4023 58.5081 28.3912C58.5123 28.3802 58.519 28.3703 58.5278 28.3621C58.5367 28.3542 58.5473 28.3482 58.5589 28.3446C58.5705 28.3411 58.5827 28.34 58.5947 28.3416H60.3957C60.898 28.3477 61.3981 28.2707 61.8717 28.1136C62.2835 27.9728 62.6617 27.7531 62.9835 27.4675C63.2872 27.1902 63.5251 26.8533 63.6844 26.4795C63.849 26.0789 63.9307 25.6506 63.9265 25.2192C63.9325 24.784 63.8521 24.3516 63.6897 23.9457C63.5341 23.5707 63.2948 23.2337 62.9888 22.9586H62.9899ZM61.3493 26.1734C61.0477 26.4209 60.659 26.5462 60.2629 26.5226H58.5947C58.5342 26.5226 58.5034 26.4949 58.5034 26.4374V23.9888C58.5034 23.9313 58.5352 23.9036 58.5947 23.9036H60.2629C60.6601 23.8799 61.0509 24.0083 61.3493 24.261C61.6126 24.5136 61.7538 24.8618 61.7369 25.2192C61.7549 25.5756 61.6137 25.9238 61.3493 26.1744V26.1734ZM70.2554 25.3435C69.9631 25.121 69.6238 24.9636 69.2615 24.8824C68.7733 24.7745 68.2733 24.7248 67.7727 24.7345C67.2467 24.7254 66.722 24.7876 66.2138 24.9193C65.8126 25.0245 65.4327 25.1946 65.0903 25.4226C65.0723 25.4314 65.0565 25.444 65.0442 25.4595C65.0318 25.475 65.0233 25.493 65.0191 25.5121C65.0149 25.5312 65.0152 25.551 65.02 25.57C65.0248 25.589 65.034 25.6067 65.0468 25.6219L65.7158 26.7527C65.7657 26.8287 65.8294 26.8379 65.9112 26.7804C66.1113 26.6452 66.333 26.5425 66.5674 26.4764C66.8733 26.387 67.194 26.3429 67.5136 26.3501C67.9192 26.3121 68.3259 26.3911 68.6838 26.576C68.7914 26.6632 68.8762 26.7738 68.9312 26.8988C68.9862 27.0237 69.0099 27.1595 69.0002 27.295V27.5528C69.0018 27.5644 69.0004 27.5762 68.9964 27.5873C68.9923 27.5984 68.9856 27.6083 68.9769 27.6164C68.9682 27.6244 68.9578 27.6304 68.9464 27.634C68.935 27.6375 68.9229 27.6386 68.911 27.637H67.6304C66.868 27.6038 66.1128 27.7931 65.4631 28.1803C64.8981 28.5665 64.5838 29.2074 64.6327 29.8709C64.6242 30.1995 64.6911 30.5282 64.8291 30.8291C64.947 31.0839 65.1264 31.3088 65.3494 31.4865C65.5724 31.657 65.8294 31.7823 66.1034 31.8562C66.4018 31.9374 66.7108 31.9774 67.0219 31.9774C67.4392 31.9918 67.8555 31.9199 68.2431 31.7689C68.5394 31.648 68.8005 31.4587 69.0034 31.2174H69.0183V31.6775C69.0158 31.6968 69.018 31.7164 69.0246 31.7347C69.0312 31.7531 69.0422 31.7697 69.0565 31.7833C69.0852 31.8121 69.1266 31.8244 69.167 31.8203H70.8363C70.8565 31.8233 70.8772 31.8217 70.8968 31.8156C70.9163 31.8096 70.9341 31.7992 70.9488 31.7854C70.9635 31.7715 70.9746 31.7546 70.9812 31.7358C70.9879 31.7171 70.9899 31.6971 70.987 31.6775V27.2375C70.9941 26.8589 70.9356 26.4819 70.814 26.122C70.7061 25.8174 70.5127 25.5478 70.2554 25.3435ZM68.9939 29.5135C68.9939 30.1533 68.5479 30.4748 67.6527 30.4748C66.9582 30.4748 66.612 30.2324 66.612 29.7435C66.612 29.2557 67.0368 28.9558 67.8927 28.9558H68.9047C68.9652 28.9558 68.9939 28.9866 68.9939 29.0441V29.5135ZM72.8985 22.0856H74.8024C74.8523 22.0856 74.8938 22.1246 74.8938 22.1729V23.7012C74.8938 23.7128 74.8914 23.7242 74.8868 23.7349C74.8822 23.7455 74.8755 23.7552 74.867 23.7633C74.8585 23.7714 74.8484 23.7778 74.8373 23.7822C74.8262 23.7865 74.8144 23.7887 74.8024 23.7885H72.8985C72.8745 23.7885 72.8516 23.7793 72.8346 23.7629C72.8177 23.7466 72.8082 23.7244 72.8082 23.7012V22.1729C72.8082 22.1246 72.8485 22.0856 72.8985 22.0856ZM72.8985 24.8916H74.8024C74.8523 24.8916 74.8938 24.9306 74.8938 24.9799V31.732C74.8939 31.7436 74.8916 31.7551 74.8871 31.7659C74.8826 31.7767 74.8758 31.7865 74.8673 31.7947C74.8588 31.8029 74.8487 31.8095 74.8375 31.8138C74.8264 31.8182 74.8145 31.8204 74.8024 31.8203H72.8985C72.8865 31.8203 72.8747 31.818 72.8637 31.8135C72.8526 31.8091 72.8427 31.8026 72.8343 31.7944C72.8259 31.7861 72.8192 31.7764 72.8148 31.7657C72.8103 31.755 72.8081 31.7435 72.8082 31.732V24.9799C72.8082 24.9306 72.8485 24.8916 72.8985 24.8916ZM82.5702 25.4616C82.3582 25.2297 82.0936 25.0483 81.7971 24.9317C81.4597 24.8028 81.0991 24.7399 80.7363 24.7468C80.3385 24.7323 79.9427 24.8097 79.582 24.9727C79.305 25.1052 79.063 25.2974 78.8748 25.5346H78.8599V25.0467C78.8626 25.0272 78.8605 25.0075 78.8539 24.9889C78.8472 24.9704 78.8362 24.9536 78.8217 24.9399C78.8073 24.9262 78.7899 24.9158 78.7708 24.9096C78.7517 24.9033 78.7313 24.9014 78.7113 24.9039H76.922C76.902 24.9014 76.8816 24.9033 76.8625 24.9096C76.8433 24.9158 76.8259 24.9262 76.8115 24.9399C76.7972 24.9537 76.7864 24.9705 76.78 24.9891C76.7735 25.0076 76.7716 25.0273 76.7744 25.0467V31.6898C76.7718 31.7091 76.7738 31.7286 76.7802 31.7469C76.7867 31.7653 76.7974 31.7819 76.8115 31.7956C76.8402 31.8234 76.8816 31.8367 76.922 31.8326H78.724C78.7441 31.835 78.7645 31.8329 78.7837 31.8265C78.8028 31.8201 78.8202 31.8095 78.8345 31.7956C78.8486 31.7819 78.8594 31.7653 78.8658 31.7469C78.8722 31.7286 78.8742 31.7091 78.8716 31.6898V27.6945C78.8573 27.3666 78.9638 27.0445 79.1721 26.7855C79.2748 26.671 79.4032 26.5806 79.5475 26.5213C79.6917 26.462 79.8481 26.4354 80.0047 26.4435C80.163 26.432 80.3219 26.457 80.4683 26.5165C80.6147 26.576 80.7444 26.6682 80.8468 26.7855C81.04 27.0526 81.1366 27.371 81.1218 27.6955V31.6775C81.119 31.6971 81.121 31.7171 81.1276 31.7358C81.1342 31.7546 81.1453 31.7715 81.16 31.7854C81.1897 31.8131 81.2322 31.8264 81.2726 31.8203H83.0587C83.079 31.8233 83.0997 31.8217 83.1192 31.8156C83.1387 31.8096 83.1565 31.7992 83.1712 31.7854C83.1861 31.7716 83.1974 31.7547 83.2042 31.736C83.2111 31.7172 83.2132 31.6972 83.2105 31.6775V27.3104C83.2141 26.956 83.1607 26.6033 83.0523 26.2648C82.9506 25.9678 82.7864 25.6944 82.5702 25.4616ZM88.2492 24.8916H87.3254C87.3129 24.8932 87.3001 24.892 87.2882 24.888C87.2762 24.8841 87.2653 24.8776 87.2564 24.869C87.2476 24.8607 87.241 24.8505 87.2369 24.8393C87.2329 24.8281 87.2315 24.8161 87.233 24.8043V22.9453C87.2361 22.9258 87.2344 22.906 87.2282 22.8872C87.2219 22.8685 87.2112 22.8515 87.1969 22.8374C87.1824 22.8232 87.1647 22.8125 87.1451 22.8061C87.1256 22.7997 87.1048 22.7977 87.0843 22.8005H85.311C85.2907 22.7979 85.2701 22.7999 85.2507 22.8063C85.2314 22.8127 85.2139 22.8234 85.1995 22.8374C85.185 22.8516 85.1742 22.8688 85.168 22.8877C85.1617 22.9066 85.1601 22.9267 85.1634 22.9463V24.8043C85.1634 24.8618 85.1347 24.8916 85.0752 24.8916H84.6271C84.6068 24.8884 84.586 24.8898 84.5665 24.8959C84.5469 24.902 84.5291 24.9125 84.5145 24.9265C84.5 24.9404 84.4892 24.9574 84.4829 24.9762C84.4766 24.995 84.4751 25.0149 84.4784 25.0344V26.2227C84.4753 26.242 84.4769 26.2617 84.4832 26.2803C84.4894 26.2989 84.5002 26.3158 84.5145 26.3295C84.5443 26.3583 84.5857 26.3706 84.6271 26.3644H85.0752C85.1347 26.3644 85.1634 26.3952 85.1634 26.4528V29.6018C85.1634 30.3916 85.3365 30.9729 85.6837 31.3478C86.0309 31.7196 86.6309 31.9045 87.4571 31.9045H88.2492C88.2693 31.907 88.2896 31.9051 88.3088 31.8989C88.3279 31.8926 88.3453 31.8823 88.3597 31.8686C88.3738 31.8549 88.3846 31.8382 88.391 31.8199C88.3975 31.8015 88.3995 31.782 88.3968 31.7628V30.3444C88.3996 30.325 88.3977 30.3053 88.3913 30.2867C88.3848 30.2682 88.374 30.2514 88.3597 30.2376C88.3453 30.2238 88.3279 30.2135 88.3088 30.2072C88.2896 30.201 88.2693 30.1991 88.2492 30.2016H87.8893C87.7989 30.2109 87.7075 30.2022 87.6208 30.1761C87.534 30.1499 87.4538 30.1069 87.3848 30.0496C87.2663 29.8957 87.2121 29.7043 87.233 29.5135V26.4528C87.2314 26.4408 87.2326 26.4286 87.2367 26.4172C87.2408 26.4058 87.2475 26.3955 87.2564 26.387C87.2652 26.3786 87.2759 26.3721 87.2877 26.3682C87.2994 26.3643 87.312 26.363 87.3243 26.3644H88.2482C88.2685 26.3677 88.2892 26.3662 88.3088 26.3601C88.3284 26.354 88.3462 26.3436 88.3607 26.3295C88.3751 26.3158 88.3858 26.2989 88.3921 26.2803C88.3984 26.2617 88.4 26.242 88.3968 26.2227V25.0344C88.3996 25.015 88.3977 24.9953 88.3913 24.9767C88.3848 24.9582 88.374 24.9414 88.3597 24.9275C88.3453 24.9138 88.3279 24.9035 88.3088 24.8972C88.2896 24.891 88.2693 24.8891 88.2492 24.8916ZM93.5969 27.4952L92.808 27.41C92.5277 27.4066 92.2521 27.3401 92.003 27.2159C91.9404 27.1737 91.8897 27.117 91.8556 27.051C91.8214 26.9849 91.805 26.9117 91.8077 26.8379C91.8066 26.7561 91.8265 26.6753 91.8656 26.6027C91.9047 26.5301 91.9618 26.468 92.0317 26.4219C92.2388 26.3038 92.4788 26.2484 92.7198 26.2648C93.0841 26.2628 93.4472 26.3182 93.7923 26.4312C94.1003 26.5267 94.3944 26.6582 94.6695 26.8215C94.6846 26.8338 94.7022 26.8429 94.7212 26.8482C94.7401 26.8535 94.76 26.855 94.7796 26.8525C94.7992 26.85 94.818 26.8435 94.8349 26.8336C94.8517 26.8237 94.8663 26.8104 94.8776 26.7948L95.7144 25.8067C95.7286 25.7919 95.7396 25.7743 95.7466 25.7552C95.7535 25.7361 95.7563 25.7158 95.7549 25.6955C95.7534 25.6753 95.7476 25.6556 95.7379 25.6376C95.7282 25.6196 95.7148 25.6038 95.6984 25.591C95.3141 25.3246 94.8877 25.12 94.4358 24.9851C93.8965 24.8181 93.3328 24.7366 92.7665 24.7437C91.8214 24.7437 91.0919 24.9399 90.5737 25.3497C90.0598 25.74 89.772 26.3449 89.8017 26.9735C89.7852 27.2466 89.8305 27.5199 89.9344 27.7743C90.0384 28.0287 90.1986 28.258 90.4038 28.4463C90.9007 28.8386 91.5152 29.0651 92.156 29.0924L92.9598 29.1776C93.2486 29.1807 93.5332 29.2526 93.786 29.3861C93.9155 29.4785 93.9909 29.6254 93.9877 29.7805C93.9873 29.8756 93.9616 29.9691 93.9131 30.0518C93.8645 30.1345 93.7948 30.2038 93.7106 30.253C93.4557 30.3926 93.1637 30.4573 92.8717 30.4378C92.4796 30.4355 92.0909 30.3677 91.7227 30.2376C91.3421 30.1072 90.9854 29.9189 90.6661 29.6798C90.6525 29.6658 90.6361 29.6546 90.6178 29.6469C90.5995 29.6393 90.5798 29.6353 90.5599 29.6353C90.54 29.6353 90.5203 29.6393 90.5021 29.6469C90.4838 29.6546 90.4673 29.6658 90.4537 29.6798L89.4853 30.7234C89.4692 30.7352 89.4562 30.7506 89.4472 30.7681C89.4383 30.7857 89.4336 30.805 89.4336 30.8245C89.4336 30.8441 89.4383 30.8634 89.4472 30.881C89.4562 30.8985 89.4692 30.9138 89.4853 30.9257C89.8877 31.241 90.338 31.4947 90.8201 31.6775C91.4413 31.9035 92.1029 32.0134 92.7665 31.999C93.7976 31.999 94.5898 31.7813 95.1431 31.3468C95.4112 31.1415 95.6267 30.879 95.7728 30.5799C95.9188 30.2808 95.9915 29.9531 95.9852 29.6223C95.995 29.3596 95.9508 29.0976 95.8549 28.8516C95.759 28.6056 95.6134 28.3806 95.4266 28.1896C95.0624 27.8054 94.4528 27.5733 93.5969 27.4952ZM60.8725 17.0601V11.0681C60.8729 11.0496 60.8695 11.0312 60.8623 11.0141C60.8551 10.9969 60.8444 10.9814 60.8307 10.9684C60.8171 10.9554 60.8009 10.9452 60.783 10.9386C60.7652 10.9319 60.7461 10.9288 60.727 10.9295H58.9101C58.8911 10.9293 58.8723 10.9328 58.8547 10.9397C58.8372 10.9466 58.8212 10.9568 58.8077 10.9697C58.7942 10.9825 58.7834 10.9979 58.776 11.0148C58.7686 11.0317 58.7648 11.0498 58.7646 11.0681V15.6356H52.5876C52.4897 15.6444 52.391 15.6342 52.2973 15.6056C52.2036 15.577 52.1167 15.5307 52.0417 15.4692C51.9036 15.2972 51.8411 15.0795 51.8676 14.8632V11.9709C51.8676 11.9529 51.8639 11.9351 51.8567 11.9184C51.8496 11.9018 51.8391 11.8867 51.8259 11.874C51.8126 11.8613 51.7969 11.8512 51.7797 11.8444C51.7624 11.8376 51.7439 11.8342 51.7253 11.8343H49.9084C49.8895 11.8339 49.8708 11.8372 49.8532 11.8438C49.8356 11.8505 49.8196 11.8605 49.8061 11.8732C49.7926 11.8859 49.7818 11.9011 49.7743 11.9179C49.7669 11.9346 49.7631 11.9527 49.7629 11.9709V15.3808C49.7204 15.8687 49.8638 16.3566 50.1664 16.7499C50.4351 17.0529 50.8832 17.1864 51.5076 17.1864H60.7397C60.7741 17.1845 60.8066 17.1705 60.831 17.1471C60.8555 17.1236 60.8702 17.0923 60.8725 17.0591V17.0601ZM54.2367 11.0712C54.4908 11.0339 54.7216 10.9067 54.8844 10.7144C55.0472 10.522 55.1304 10.2781 55.1181 10.0298C55.1042 9.78134 54.9957 9.54668 54.8136 9.37105C54.6314 9.19542 54.3884 9.09127 54.1316 9.07868C53.8745 9.06477 53.6213 9.1433 53.4205 9.29917C53.2198 9.45504 53.0857 9.67722 53.0442 9.92294C53.0185 10.0793 53.0315 10.2394 53.0823 10.3899C53.1331 10.5404 53.2201 10.6771 53.3362 10.7888C53.4529 10.9008 53.5952 10.9847 53.7516 11.0338C53.9081 11.0829 54.0742 11.0957 54.2367 11.0712ZM56.7268 11.0712C56.9807 11.0332 57.2111 10.9054 57.3733 10.7127C57.5355 10.52 57.618 10.2759 57.605 10.0277C57.5904 9.77966 57.4814 9.54562 57.2991 9.3706C57.1168 9.19559 56.874 9.09198 56.6175 9.07971C56.3608 9.06602 56.1079 9.14454 55.9074 9.30017C55.7069 9.4558 55.5729 9.67759 55.5311 9.92294C55.478 10.2413 55.5874 10.5628 55.8232 10.7908C56.06 11.0168 56.3966 11.1226 56.7258 11.0712H56.7268ZM42.3647 8.00127H44.292C44.3409 8.00127 44.3812 8.0403 44.3812 8.08755V17.1135C44.3812 17.1364 44.3718 17.1584 44.3551 17.1745C44.3384 17.1907 44.3157 17.1998 44.292 17.1998H42.3647C42.3412 17.1995 42.3188 17.1903 42.3023 17.1742C42.2858 17.158 42.2765 17.1362 42.2765 17.1135V8.08858C42.2765 8.04133 42.3158 8.0023 42.3647 8.0023V8.00127Z" fill="white" stroke="white" stroke-width="2" mask="url(#path-10-inside-1_2225_1566)"/>
<path d="M11.0449 16.3923L10.1606 15.33V16.7122V16.9422C10.1606 17.7566 9.95896 18.2455 9.71423 18.5451C9.46859 18.8458 9.13387 19.0118 8.76363 19.0934C8.38931 19.176 8.00196 19.1664 7.69781 19.1318C7.65726 19.1271 7.61858 19.1221 7.58203 19.1169V18.9044C7.8114 18.8901 8.03636 18.8319 8.24405 18.733L8.25599 18.7274L8.26761 18.7211C8.51037 18.5894 8.70531 18.3828 8.81948 18.1298L8.81949 18.1298L8.82059 18.1273C8.92323 17.8965 8.98672 17.6472 9.003 17.3911C9.03688 17.134 9.03685 16.8549 9.03683 16.5759L9.03683 16.554V11.4297H10.1511V14.8603V14.8697L10.1514 14.8792C10.1586 15.07 10.211 15.2558 10.3036 15.4224C10.3962 15.5888 10.5262 15.7309 10.6823 15.8387L10.7041 15.8537L10.7273 15.8664C11.0818 16.0595 11.4867 16.153 11.8921 16.1358H20.9175H21.4175V15.6358V11.4297H22.5253V16.7H11.8935C11.528 16.7 11.3484 16.6375 11.2587 16.5898C11.1721 16.5437 11.129 16.4932 11.0449 16.3923ZM26.7285 9.45325C26.647 9.55006 26.5285 9.61757 26.3936 9.63809C26.3064 9.65066 26.2175 9.64337 26.1342 9.61706C26.0506 9.59065 25.976 9.54615 25.9158 9.48839L25.9156 9.4882C25.8564 9.43153 25.8133 9.36345 25.7882 9.29018L25.3152 9.45205L25.7882 9.29018C25.7635 9.21792 25.7567 9.14163 25.7679 9.06698C25.7889 8.94981 25.854 8.8402 25.9562 8.76095C26.0598 8.68055 26.1933 8.63824 26.3309 8.6456L26.3336 8.64574C26.4709 8.65233 26.5979 8.70781 26.6909 8.7972C26.7831 8.88584 26.8355 9.00111 26.8427 9.11985C26.8486 9.23828 26.8094 9.35703 26.7285 9.45325ZM19.769 18.5133L19.7694 18.5132C19.8571 18.5003 19.9467 18.5074 20.0305 18.5338C20.1144 18.5603 20.1891 18.6048 20.2495 18.6628L20.5957 18.3021L20.2492 18.6625C20.3083 18.7193 20.3513 18.7875 20.3762 18.8609C20.4008 18.9336 20.4073 19.0103 20.3955 19.0853C20.375 19.204 20.3094 19.3152 20.206 19.3955C20.1018 19.4765 19.9675 19.5192 19.829 19.5118L19.8265 19.5117C19.6882 19.5051 19.5603 19.4491 19.4666 19.359C19.3738 19.2696 19.3213 19.1534 19.3142 19.0337C19.3087 18.9145 19.3485 18.7951 19.4303 18.6985C19.5128 18.601 19.6328 18.5333 19.769 18.5133ZM32.5755 19.5119L32.5729 19.5117C32.4347 19.505 32.307 19.449 32.2134 19.3588C32.1207 19.2694 32.0683 19.1533 32.0612 19.0337C32.0557 18.9145 32.0955 18.7951 32.1773 18.6985C32.2596 18.6012 32.3791 18.5337 32.5148 18.5135C32.6024 18.5012 32.6917 18.5087 32.7752 18.5353C32.8591 18.562 32.9339 18.6068 32.9943 18.6648C33.0535 18.7216 33.0967 18.7898 33.1218 18.8632C33.1465 18.9356 33.1534 19.0119 33.1423 19.0866C33.1215 19.205 33.0559 19.3157 32.9528 19.3957C32.8485 19.4768 32.714 19.5194 32.5755 19.5119ZM10.516 11.0666L10.5143 11.0684L10.516 11.0666Z" fill="white" stroke="white"/>
<mask id="path-12-inside-2_2225_1566" fill="white">
<path d="M27.386 16.9419V16.7304C27.5399 16.9224 27.7544 17.0601 27.9976 17.1237C28.1569 17.1638 28.3194 17.1895 28.484 17.1997H40.2583C40.339 17.1997 40.4037 17.1381 40.4037 17.0601V8.1409C40.4027 8.10401 40.387 8.06893 40.3599 8.04293C40.3328 8.01693 40.2964 8.002 40.2583 8.00122H38.4414C38.4032 8.002 38.3668 8.01693 38.3398 8.04293C38.3127 8.06893 38.297 8.10401 38.2959 8.1409V15.6355H36.4025C36.2077 15.2997 36.0744 14.9338 36.0086 14.554C35.9566 14.2799 35.9303 14.0018 35.93 13.7231C35.93 11.635 34.4369 10.9746 32.9386 10.8349C31.9701 10.7695 30.997 10.8443 30.0513 11.0568C30.0327 11.0606 30.0151 11.0682 29.9996 11.0791C29.9842 11.0899 29.9713 11.1038 29.9618 11.1198C29.9523 11.1358 29.9464 11.1535 29.9444 11.1718C29.9425 11.1902 29.9445 11.2087 29.9504 11.2263L30.3518 12.4382C30.3731 12.5019 30.44 12.5409 30.509 12.5327C31.1317 12.4104 31.7681 12.3665 32.4024 12.4023C33.1659 12.5419 33.8253 12.8562 33.8253 13.8268C33.8147 14.4431 33.9102 15.0573 34.1056 15.6447H28.5179C28.2307 15.6609 27.9457 15.5879 27.7045 15.4363C27.5106 15.2358 27.3986 14.9742 27.3891 14.6998V11.0671C27.389 11.0487 27.3851 11.0306 27.3777 11.0137C27.3704 10.9968 27.3596 10.9815 27.3461 10.9686C27.3326 10.9557 27.3166 10.9455 27.299 10.9386C27.2814 10.9317 27.2626 10.9283 27.2437 10.9284H25.4268C25.4077 10.928 25.3888 10.9313 25.3711 10.9381C25.3534 10.9449 25.3373 10.955 25.3237 10.968C25.3101 10.9809 25.2994 10.9963 25.2921 11.0133C25.2848 11.0304 25.2811 11.0486 25.2813 11.0671V16.5527C25.2813 16.8567 25.2813 17.1135 25.2526 17.3415C25.2383 17.5414 25.1906 17.7377 25.1114 17.9228C25.041 18.0737 24.9227 18.1989 24.7737 18.2802C24.5772 18.3737 24.3596 18.4168 24.1419 18.4045H23.8021V19.5261C23.8021 19.5261 27.386 20.5326 27.386 16.9409V16.9419ZM5.66592 11.823C5.35859 11.5785 4.99983 11.4019 4.61465 11.3053C3.7715 11.0989 2.888 11.0989 2.04486 11.3053C1.65898 11.4026 1.29932 11.5791 0.990393 11.823C0.671824 12.0869 0.424402 12.4207 0.268304 12.7956C-0.0894345 13.7463 -0.0894345 14.7885 0.268304 15.7392C0.424402 16.1141 0.671824 16.4479 0.990393 16.7119C1.30365 16.9512 1.66788 17.1227 2.05654 17.2152C2.90075 17.4206 3.78424 17.4206 4.62845 17.2152C5.01392 17.1176 5.37178 16.9409 5.67973 16.6965C5.9983 16.4325 6.24678 16.0987 6.40394 15.7238C6.7573 14.7727 6.7573 13.7323 6.40394 12.7812C6.24062 12.4094 5.98755 12.0808 5.66592 11.823ZM4.54881 14.2777C4.54881 15.3192 4.1421 15.8409 3.32763 15.845C2.51421 15.8491 2.10645 15.3264 2.10645 14.2777V14.2469C2.10645 13.2095 2.51421 12.6878 3.32763 12.6837C4.1421 12.6796 4.54881 13.2013 4.54881 14.2479V14.2787V14.2777Z"/>
</mask>
<path d="M27.386 16.9419V16.7304C27.5399 16.9224 27.7544 17.0601 27.9976 17.1237C28.1569 17.1638 28.3194 17.1895 28.484 17.1997H40.2583C40.339 17.1997 40.4037 17.1381 40.4037 17.0601V8.1409C40.4027 8.10401 40.387 8.06893 40.3599 8.04293C40.3328 8.01693 40.2964 8.002 40.2583 8.00122H38.4414C38.4032 8.002 38.3668 8.01693 38.3398 8.04293C38.3127 8.06893 38.297 8.10401 38.2959 8.1409V15.6355H36.4025C36.2077 15.2997 36.0744 14.9338 36.0086 14.554C35.9566 14.2799 35.9303 14.0018 35.93 13.7231C35.93 11.635 34.4369 10.9746 32.9386 10.8349C31.9701 10.7695 30.997 10.8443 30.0513 11.0568C30.0327 11.0606 30.0151 11.0682 29.9996 11.0791C29.9842 11.0899 29.9713 11.1038 29.9618 11.1198C29.9523 11.1358 29.9464 11.1535 29.9444 11.1718C29.9425 11.1902 29.9445 11.2087 29.9504 11.2263L30.3518 12.4382C30.3731 12.5019 30.44 12.5409 30.509 12.5327C31.1317 12.4104 31.7681 12.3665 32.4024 12.4023C33.1659 12.5419 33.8253 12.8562 33.8253 13.8268C33.8147 14.4431 33.9102 15.0573 34.1056 15.6447H28.5179C28.2307 15.6609 27.9457 15.5879 27.7045 15.4363C27.5106 15.2358 27.3986 14.9742 27.3891 14.6998V11.0671C27.389 11.0487 27.3851 11.0306 27.3777 11.0137C27.3704 10.9968 27.3596 10.9815 27.3461 10.9686C27.3326 10.9557 27.3166 10.9455 27.299 10.9386C27.2814 10.9317 27.2626 10.9283 27.2437 10.9284H25.4268C25.4077 10.928 25.3888 10.9313 25.3711 10.9381C25.3534 10.9449 25.3373 10.955 25.3237 10.968C25.3101 10.9809 25.2994 10.9963 25.2921 11.0133C25.2848 11.0304 25.2811 11.0486 25.2813 11.0671V16.5527C25.2813 16.8567 25.2813 17.1135 25.2526 17.3415C25.2383 17.5414 25.1906 17.7377 25.1114 17.9228C25.041 18.0737 24.9227 18.1989 24.7737 18.2802C24.5772 18.3737 24.3596 18.4168 24.1419 18.4045H23.8021V19.5261C23.8021 19.5261 27.386 20.5326 27.386 16.9409V16.9419ZM5.66592 11.823C5.35859 11.5785 4.99983 11.4019 4.61465 11.3053C3.7715 11.0989 2.888 11.0989 2.04486 11.3053C1.65898 11.4026 1.29932 11.5791 0.990393 11.823C0.671824 12.0869 0.424402 12.4207 0.268304 12.7956C-0.0894345 13.7463 -0.0894345 14.7885 0.268304 15.7392C0.424402 16.1141 0.671824 16.4479 0.990393 16.7119C1.30365 16.9512 1.66788 17.1227 2.05654 17.2152C2.90075 17.4206 3.78424 17.4206 4.62845 17.2152C5.01392 17.1176 5.37178 16.9409 5.67973 16.6965C5.9983 16.4325 6.24678 16.0987 6.40394 15.7238C6.7573 14.7727 6.7573 13.7323 6.40394 12.7812C6.24062 12.4094 5.98755 12.0808 5.66592 11.823ZM4.54881 14.2777C4.54881 15.3192 4.1421 15.8409 3.32763 15.845C2.51421 15.8491 2.10645 15.3264 2.10645 14.2777V14.2469C2.10645 13.2095 2.51421 12.6878 3.32763 12.6837C4.1421 12.6796 4.54881 13.2013 4.54881 14.2479V14.2787V14.2777Z" fill="white"/>
<path d="M27.386 16.7304L28.1662 16.1049L26.386 13.8843V16.7304H27.386ZM27.9976 17.1237L27.7443 18.0912L27.7537 18.0935L27.9976 17.1237ZM28.484 17.1997L28.4217 18.1978L28.4528 18.1997H28.484V17.1997ZM40.4037 8.1409H41.4037V8.12625L41.4033 8.11159L40.4037 8.1409ZM40.2583 8.00122L40.2786 7.00143L40.2684 7.00122H40.2583V8.00122ZM38.4414 8.00122V7.00122H38.4312L38.421 7.00143L38.4414 8.00122ZM38.2959 8.1409L37.2963 8.11159L37.2959 8.12625V8.1409H38.2959ZM38.2959 15.6355V16.6355H39.2959V15.6355H38.2959ZM36.4025 15.6355L35.5376 16.1374L35.8266 16.6355H36.4025V15.6355ZM36.0086 14.554L36.9939 14.3832L36.9925 14.3756L36.9911 14.3679L36.0086 14.554ZM35.93 13.7231H34.93V13.7244L35.93 13.7231ZM32.9386 10.8349L33.0314 9.83925L33.0187 9.83807L33.006 9.8372L32.9386 10.8349ZM30.0513 11.0568L30.253 12.0362L30.2618 12.0344L30.2705 12.0325L30.0513 11.0568ZM29.9504 11.2263L30.8997 10.9118L30.8977 10.9058L29.9504 11.2263ZM30.3518 12.4382L29.4025 12.7526L29.4032 12.7546L30.3518 12.4382ZM30.509 12.5327L30.6272 13.5257L30.6647 13.5212L30.7017 13.5139L30.509 12.5327ZM32.4024 12.4023L32.5823 11.4186L32.5209 11.4073L32.4586 11.4038L32.4024 12.4023ZM33.8253 13.8268L34.8251 13.844L34.8253 13.8354V13.8268H33.8253ZM34.1056 15.6447V16.6447H35.4921L35.0545 15.3292L34.1056 15.6447ZM28.5179 15.6447V14.6447H28.4898L28.4616 14.6463L28.5179 15.6447ZM27.7045 15.4363L26.9858 16.1316L27.0699 16.2185L27.1723 16.2829L27.7045 15.4363ZM27.3891 14.6998H26.3891V14.717L26.3897 14.7342L27.3891 14.6998ZM27.3891 11.0671H28.3892L28.3891 11.0595L27.3891 11.0671ZM27.2437 10.9284V11.9284L27.2508 11.9284L27.2437 10.9284ZM25.4268 10.9284L25.4051 11.9282L25.4159 11.9284H25.4268V10.9284ZM25.2813 11.0671H26.2813L26.2812 11.0591L25.2813 11.0671ZM25.2526 17.3415L24.2604 17.2167L24.2571 17.2433L24.2552 17.27L25.2526 17.3415ZM25.1114 17.9228L26.0177 18.3455L26.0244 18.3309L26.0308 18.3162L25.1114 17.9228ZM24.7737 18.2802L25.2033 19.1832L25.2284 19.1713L25.2528 19.158L24.7737 18.2802ZM24.1419 18.4045L24.1984 17.4061L24.1701 17.4045H24.1419V18.4045ZM23.8021 18.4045V17.4045H22.8021V18.4045H23.8021ZM23.8021 19.5261H22.8021V20.2839L23.5317 20.4888L23.8021 19.5261ZM4.61465 11.3053L4.85777 10.3353L4.85247 10.334L4.61465 11.3053ZM2.04486 11.3053L1.80703 10.334L1.80051 10.3356L2.04486 11.3053ZM0.990393 11.823L0.370808 11.0381L0.361502 11.0454L0.352372 11.053L0.990393 11.823ZM0.268304 12.7956L-0.654863 12.4112L-0.661525 12.4272L-0.667628 12.4434L0.268304 12.7956ZM0.268304 15.7392L-0.667628 16.0914L-0.661525 16.1076L-0.654863 16.1236L0.268304 15.7392ZM0.990393 16.7119L0.352372 17.4819L0.367607 17.4945L0.38333 17.5065L0.990393 16.7119ZM2.05654 17.2152L2.29297 16.2435L2.28792 16.2423L2.05654 17.2152ZM4.62845 17.2152L4.86489 18.1868L4.87384 18.1846L4.62845 17.2152ZM5.67973 16.6965L6.30145 17.4797L6.30967 17.4732L6.31775 17.4665L5.67973 16.6965ZM6.40394 15.7238L7.32618 16.1105L7.33415 16.0914L7.34134 16.0721L6.40394 15.7238ZM6.40394 12.7812L7.34134 12.433L7.33121 12.4057L7.31952 12.3791L6.40394 12.7812ZM3.32763 15.845L3.32258 14.845H3.32258L3.32763 15.845ZM3.32763 12.6837L3.32258 11.6837H3.32258L3.32763 12.6837ZM28.386 16.9419V16.7304H26.386V16.9419H28.386ZM26.6057 17.3559C26.8978 17.7202 27.2992 17.9746 27.7443 18.0911L28.2509 16.1564C28.2096 16.1455 28.182 16.1246 28.1662 16.1049L26.6057 17.3559ZM27.7537 18.0935C27.9711 18.1482 28.1943 18.1836 28.4217 18.1978L28.5462 16.2017C28.4444 16.1953 28.3427 16.1794 28.2415 16.1539L27.7537 18.0935ZM28.484 18.1997H40.2583V16.1997H28.484V18.1997ZM40.2583 18.1997C40.8498 18.1997 41.4037 17.731 41.4037 17.0601H39.4037C39.4037 16.5453 39.8281 16.1997 40.2583 16.1997V18.1997ZM41.4037 17.0601V8.1409H39.4037V17.0601H41.4037ZM41.4033 8.11159C41.3944 7.80769 41.265 7.52563 41.0525 7.3216L39.6673 8.76427C39.509 8.61224 39.4109 8.40033 39.4042 8.17021L41.4033 8.11159ZM41.0525 7.3216C40.841 7.11852 40.5633 7.00722 40.2786 7.00143L40.2379 9.00101C40.0295 8.99677 39.8246 8.91534 39.6673 8.76427L41.0525 7.3216ZM40.2583 7.00122H38.4414V9.00122H40.2583V7.00122ZM38.421 7.00143C38.1363 7.00722 37.8587 7.11852 37.6472 7.3216L39.0323 8.76427C38.875 8.91534 38.6701 8.99677 38.4617 9.00101L38.421 7.00143ZM37.6472 7.3216C37.4347 7.52563 37.3052 7.80769 37.2963 8.11159L39.2955 8.17021C39.2887 8.40033 39.1907 8.61224 39.0323 8.76427L37.6472 7.3216ZM37.2959 8.1409V15.6355H39.2959V8.1409H37.2959ZM38.2959 14.6355H36.4025V16.6355H38.2959V14.6355ZM37.2675 15.1336C37.1316 14.8994 37.0393 14.6455 36.9939 14.3832L35.0232 14.7247C35.1094 15.222 35.2838 15.6999 35.5376 16.1374L37.2675 15.1336ZM36.9911 14.3679C36.9507 14.1546 36.9303 13.9384 36.93 13.7217L34.93 13.7244C34.9304 14.0652 34.9626 14.4051 35.026 14.74L36.9911 14.3679ZM36.93 13.7231C36.93 12.4071 36.4422 11.4174 35.6167 10.7642C34.8402 10.1497 33.8711 9.91753 33.0314 9.83925L32.8458 11.8306C33.5045 11.892 34.0311 12.0599 34.3756 12.3325C34.6712 12.5665 34.93 12.951 34.93 13.7231H36.93ZM33.006 9.8372C31.9415 9.76534 30.8719 9.8475 29.8321 10.0811L30.2705 12.0325C31.1221 11.8411 31.9987 11.7738 32.8713 11.8327L33.006 9.8372ZM29.8496 10.0773C29.6979 10.1086 29.5528 10.1707 29.4241 10.2613L30.5752 11.8968C30.4773 11.9657 30.3674 12.0127 30.253 12.0362L29.8496 10.0773ZM29.4241 10.2613C29.2952 10.352 29.1851 10.4697 29.1025 10.6083L30.8211 11.6313C30.7576 11.7379 30.6732 11.8278 30.5752 11.8968L29.4241 10.2613ZM29.1025 10.6083C29.02 10.747 28.9675 10.9028 28.9501 11.0655L30.9387 11.2782C30.9253 11.4042 30.8847 11.5245 30.8211 11.6313L29.1025 10.6083ZM28.9501 11.0655C28.9327 11.2283 28.951 11.3924 29.0032 11.5467L30.8977 10.9058C30.938 11.025 30.9522 11.1521 30.9387 11.2782L28.9501 11.0655ZM29.0011 11.5407L29.4025 12.7526L31.3011 12.1238L30.8997 10.9118L29.0011 11.5407ZM29.4032 12.7546C29.5894 13.3129 30.1354 13.5842 30.6272 13.5257L30.3908 11.5397C30.7446 11.4976 31.1567 11.6909 31.3005 12.1218L29.4032 12.7546ZM30.7017 13.5139C31.2424 13.4078 31.7951 13.3697 32.3461 13.4007L32.4586 11.4038C31.741 11.3634 31.0209 11.413 30.3162 11.5514L30.7017 13.5139ZM32.2224 13.3859C32.551 13.4461 32.6996 13.5207 32.7592 13.5705C32.7785 13.5867 32.7869 13.5986 32.7946 13.6161C32.8038 13.6371 32.8253 13.6982 32.8253 13.8268H34.8253C34.8253 13.0816 34.5555 12.4649 34.0411 12.0354C33.5801 11.6504 33.0172 11.4981 32.5823 11.4186L32.2224 13.3859ZM32.8254 13.8096C32.8128 14.5408 32.9263 15.2674 33.1567 15.9603L35.0545 15.3292C34.8942 14.8471 34.8165 14.3454 34.8251 13.844L32.8254 13.8096ZM34.1056 14.6447H28.5179V16.6447H34.1056V14.6447ZM28.4616 14.6463C28.3795 14.651 28.3005 14.6297 28.2367 14.5896L27.1723 16.2829C27.591 16.5461 28.082 16.6709 28.5742 16.6432L28.4616 14.6463ZM28.4232 14.7409C28.3985 14.7154 28.3893 14.688 28.3886 14.6655L26.3897 14.7342C26.4078 15.2603 26.6228 15.7563 26.9858 16.1316L28.4232 14.7409ZM28.3891 14.6998V11.0671H26.3891V14.6998H28.3891ZM28.3891 11.0595C28.3879 10.9052 28.3553 10.7534 28.294 10.6131L26.4615 11.4142C26.4149 11.3078 26.3901 11.1923 26.3892 11.0746L28.3891 11.0595ZM28.294 10.6131C28.2327 10.473 28.1445 10.3481 28.036 10.2447L26.6562 11.6925C26.5747 11.6148 26.508 11.5206 26.4615 11.4142L28.294 10.6131ZM28.036 10.2447C27.9276 10.1414 27.801 10.0614 27.6642 10.0077L26.9338 11.8696C26.8322 11.8297 26.7376 11.77 26.6562 11.6925L28.036 10.2447ZM27.6642 10.0077C27.5275 9.95408 27.3823 9.92738 27.2365 9.92842L27.2508 11.9284C27.143 11.9291 27.0354 11.9094 26.9338 11.8696L27.6642 10.0077ZM27.2437 9.9284H25.4268V11.9284H27.2437V9.9284ZM25.4484 9.92863C25.3002 9.92542 25.1522 9.95096 25.0127 10.0045L25.7294 11.8716C25.6254 11.9116 25.5152 11.9306 25.4051 11.9282L25.4484 9.92863ZM25.0127 10.0045C24.8732 10.058 24.7441 10.1389 24.6338 10.2441L26.0136 11.6918C25.9304 11.7711 25.8335 11.8317 25.7294 11.8716L25.0127 10.0045ZM24.6338 10.2441C24.5233 10.3493 24.434 10.4768 24.3728 10.6198L26.2114 11.4069C26.1648 11.5159 26.0969 11.6125 26.0136 11.6918L24.6338 10.2441ZM24.3728 10.6198C24.3115 10.763 24.2801 10.9179 24.2813 11.075L26.2812 11.0591C26.2822 11.1793 26.2581 11.2977 26.2114 11.4069L24.3728 10.6198ZM24.2813 11.0671V16.5527H26.2813V11.0671H24.2813ZM24.2813 16.5527C24.2813 16.8751 24.2797 17.0636 24.2604 17.2167L26.2448 17.4662C26.2829 17.1634 26.2813 16.8383 26.2813 16.5527H24.2813ZM24.2552 17.27C24.2488 17.3584 24.2277 17.446 24.192 17.5294L26.0308 18.3162C26.1535 18.0293 26.2277 17.7243 26.25 17.413L24.2552 17.27ZM24.2051 17.5001C24.2268 17.4535 24.2603 17.4212 24.2946 17.4025L25.2528 19.158C25.5851 18.9766 25.8552 18.6938 26.0177 18.3455L24.2051 17.5001ZM24.3441 17.3772C24.2981 17.3991 24.2475 17.4089 24.1984 17.4061L24.0853 19.4029C24.4716 19.4248 24.8564 19.3483 25.2033 19.1832L24.3441 17.3772ZM24.1419 17.4045H23.8021V19.4045H24.1419V17.4045ZM22.8021 18.4045V19.5261H24.8021V18.4045H22.8021ZM23.8021 19.5261C23.5317 20.4888 23.5321 20.489 23.5326 20.4891C23.5328 20.4891 23.5332 20.4893 23.5336 20.4894C23.5343 20.4896 23.535 20.4898 23.5358 20.49C23.5375 20.4904 23.5393 20.491 23.5414 20.4915C23.5455 20.4927 23.5506 20.494 23.5565 20.4956C23.5683 20.4987 23.5836 20.5026 23.6021 20.5072C23.6392 20.5164 23.6895 20.5282 23.7512 20.5411C23.8742 20.5669 24.0452 20.5976 24.249 20.6208C24.6475 20.6662 25.2153 20.6878 25.8091 20.557C26.4109 20.4244 27.0841 20.1239 27.6 19.4933C28.1178 18.8603 28.386 18.0062 28.386 16.9409H26.386C26.386 17.6715 26.2061 18.0385 26.052 18.2269C25.8958 18.4178 25.673 18.539 25.3789 18.6038C25.0767 18.6703 24.7485 18.6648 24.4751 18.6336C24.3429 18.6186 24.2339 18.5988 24.1609 18.5835C24.1246 18.5759 24.0979 18.5696 24.0825 18.5658C24.0748 18.5639 24.07 18.5626 24.0682 18.5622C24.0673 18.5619 24.0672 18.5619 24.0679 18.5621C24.0683 18.5622 24.0688 18.5623 24.0696 18.5625C24.0699 18.5626 24.0704 18.5628 24.0709 18.5629C24.0711 18.563 24.0715 18.5631 24.0716 18.5631C24.072 18.5632 24.0724 18.5633 23.8021 19.5261ZM26.386 16.9409V16.9419H28.386V16.9409H26.386ZM6.28842 11.0404C5.86816 10.7061 5.37972 10.4662 4.85777 10.3353L4.37152 12.2753C4.61993 12.3376 4.84903 12.451 5.04343 12.6056L6.28842 11.0404ZM4.85247 10.334C3.85308 10.0893 2.80642 10.0893 1.80703 10.334L2.28268 12.2766C2.96958 12.1085 3.68992 12.1085 4.37682 12.2766L4.85247 10.334ZM1.80051 10.3356C1.2795 10.4669 0.791655 10.7059 0.370808 11.0381L1.60998 12.6079C1.80699 12.4524 2.03847 12.3382 2.2892 12.275L1.80051 10.3356ZM0.352372 11.053C-0.0893025 11.4189 -0.435503 11.8844 -0.654863 12.4112L1.19147 13.18C1.28431 12.9571 1.43295 12.755 1.62841 12.593L0.352372 11.053ZM-0.667628 12.4434C-1.11079 13.6212 -1.11079 14.9137 -0.667628 16.0914L1.20424 15.3871C0.931922 14.6634 0.931922 13.8715 1.20424 13.1478L-0.667628 12.4434ZM-0.654863 16.1236C-0.435502 16.6505 -0.0893018 17.1159 0.352372 17.4819L1.62841 15.9419C1.43295 15.7799 1.28431 15.5778 1.19147 15.3548L-0.654863 16.1236ZM0.38333 17.5065C0.810242 17.8327 1.30301 18.0638 1.82515 18.188L2.28792 16.2423C2.03276 16.1816 1.79706 16.0697 1.59746 15.9172L0.38333 17.5065ZM1.82011 18.1868C2.81967 18.43 3.86532 18.43 4.86488 18.1868L4.39203 16.2435C3.70317 16.4111 2.98182 16.4111 2.29296 16.2435L1.82011 18.1868ZM4.87384 18.1846C5.39514 18.0526 5.88154 17.813 6.30145 17.4797L5.05801 15.9132C4.86202 16.0688 4.6327 16.1825 4.38306 16.2457L4.87384 18.1846ZM6.31775 17.4665C6.75841 17.1014 7.10551 16.6368 7.32618 16.1105L5.4817 15.3372C5.38805 15.5606 5.23819 15.7637 5.04171 15.9265L6.31775 17.4665ZM7.34134 16.0721C7.77816 14.8963 7.77816 13.6087 7.34134 12.433L5.46655 13.1295C5.73643 13.8559 5.73643 14.6492 5.46655 15.3756L7.34134 16.0721ZM7.31952 12.3791C7.09038 11.8574 6.73682 11.3998 6.29137 11.0427L5.04047 12.6032C5.23827 12.7618 5.39085 12.9614 5.48836 13.1834L7.31952 12.3791ZM3.54881 14.2777C3.54881 14.6953 3.46267 14.8257 3.45485 14.8357C3.45403 14.8368 3.45614 14.834 3.46101 14.8302C3.46586 14.8265 3.46863 14.8255 3.46641 14.8264C3.4616 14.8285 3.42133 14.8445 3.32258 14.845L3.33267 16.845C3.96821 16.8418 4.59723 16.6235 5.03244 16.065C5.43159 15.5528 5.54881 14.9015 5.54881 14.2777H3.54881ZM3.32258 14.845C3.22528 14.8455 3.18707 14.83 3.18458 14.8289C3.1835 14.8285 3.18728 14.83 3.19297 14.8344C3.19867 14.8388 3.20129 14.8421 3.20075 14.8414C3.19341 14.832 3.10645 14.7004 3.10645 14.2777H1.10645C1.10645 14.9037 1.22336 15.5578 1.62326 16.0709C2.06096 16.6325 2.69436 16.8482 3.33268 16.845L3.32258 14.845ZM3.10645 14.2777V14.2469H1.10645V14.2777H3.10645ZM3.10645 14.2469C3.10645 13.8326 3.19235 13.7033 3.20002 13.6935C3.20086 13.6924 3.19883 13.6951 3.19409 13.6987C3.18937 13.7024 3.18673 13.7033 3.18908 13.7023C3.19409 13.7001 3.23438 13.6842 3.33268 13.6837L3.32258 11.6837C2.68735 11.6869 2.0591 11.9052 1.62399 12.4622C1.22442 12.9736 1.10645 13.6238 1.10645 14.2469H3.10645ZM3.33267 13.6837C3.43064 13.6832 3.46923 13.6988 3.47189 13.6999C3.47303 13.7004 3.46922 13.6988 3.46344 13.6944C3.45765 13.69 3.4549 13.6865 3.45529 13.687C3.46203 13.6956 3.54881 13.8261 3.54881 14.2479H5.54881C5.54881 13.6232 5.43223 12.9694 5.032 12.4566C4.59397 11.8953 3.96038 11.6805 3.32258 11.6837L3.33267 13.6837ZM3.54881 14.2479V14.2787H5.54881V14.2479H3.54881ZM5.54881 14.2787V14.2777H3.54881V14.2787H5.54881Z" fill="white" mask="url(#path-12-inside-2_2225_1566)"/>
<defs>
<linearGradient id="paint0_linear_2225_1566" x1="138.431" y1="26.1041" x2="138.432" y2="17.973" gradientUnits="userSpaceOnUse">
<stop stop-color="#E30613"/>
<stop offset="1" stop-color="#FBBB21"/>
</linearGradient>
<linearGradient id="paint1_linear_2225_1566" x1="150.498" y1="29.7017" x2="130.382" y2="29.7244" gradientUnits="userSpaceOnUse">
<stop stop-color="#E63323"/>
<stop offset="1" stop-color="#7F1810"/>
</linearGradient>
<linearGradient id="paint2_linear_2225_1566" x1="130.202" y1="30.6048" x2="121.571" y2="30.6048" gradientUnits="userSpaceOnUse">
<stop stop-color="#E63323"/>
<stop offset="1" stop-color="#7F1810"/>
</linearGradient>
<linearGradient id="paint3_linear_2225_1566" x1="118.544" y1="15.3622" x2="118.546" y2="35.4208" gradientUnits="userSpaceOnUse">
<stop stop-color="#183E75"/>
<stop offset="1" stop-color="#008ECF"/>
</linearGradient>
<linearGradient id="paint4_linear_2225_1566" x1="117.346" y1="13.9644" x2="117.344" y2="22.0934" gradientUnits="userSpaceOnUse">
<stop stop-color="#183E75"/>
<stop offset="1" stop-color="#008ECF"/>
</linearGradient>
<linearGradient id="paint5_linear_2225_1566" x1="112.483" y1="11.4166" x2="132.603" y2="11.394" gradientUnits="userSpaceOnUse">
<stop stop-color="#3AAA35"/>
<stop offset="1" stop-color="#133A22"/>
</linearGradient>
<linearGradient id="paint6_linear_2225_1566" x1="125.506" y1="9.5121" x2="134.45" y2="9.51389" gradientUnits="userSpaceOnUse">
<stop stop-color="#3AAA35"/>
<stop offset="1" stop-color="#133A22"/>
</linearGradient>
<linearGradient id="paint7_linear_2225_1566" x1="137.5" y1="23.5038" x2="137.5" y2="4.50268" gradientUnits="userSpaceOnUse">
<stop stop-color="#E30613"/>
<stop offset="1" stop-color="#FBBB21"/>
</linearGradient>
</defs>
</svg>
