<?xml version="1.0" encoding="UTF-8"?>
<!-- Created with Inkscape (http://www.inkscape.org/) -->
<svg width="1440" height="429.34" version="1.1" viewBox="0 0 1440 429.34" xml:space="preserve" xmlns="http://www.w3.org/2000/svg"><g transform="matrix(1.3333 0 0 -1.3333 0 429.34)"><path d="m186.88 261.64v-171.93h-26.983v73.668h-83.578v-73.668h-26.984v171.93h26.984v-71.519h83.578v71.519z" fill="#fff"/><path d="m240.99 89.71h-26.985v128.95h26.985z" fill="#fff"/><path d="m352.84 121.47c6.925 7.88 9.791 20.297 9.791 32.714 0 12.657-2.866 24.835-9.791 32.954-5.971 7.403-15.283 10.985-25.551 10.985-11.463 0-21.252-3.821-27.461-12.895-5.493-7.641-8.119-19.104-8.119-31.044 0-11.939 2.149-23.162 7.64-30.804 6.209-9.074 16.717-13.133 27.223-13.133 10.508 0 20.059 3.82 26.268 11.223m33.431 97.189v-133.72c0-20.775-6.925-35.818-22.446-45.609-12.896-8.119-25.791-10.269-37.968-10.269-10.746 0-23.163 3.344-31.522 9.552-7.641 4.06-15.044 10.508-19.581 18.387l24.835 11.94c1.671-2.865 3.582-5.014 6.208-7.163 5.254-5.015 13.611-7.403 20.297-7.403 8.837 0 17.911 2.626 23.88 7.403 7.403 5.731 9.552 12.178 9.314 23.401v12.656c-10.031-7.88-22.686-11.701-36.774-11.701-17.194 0-33.91 7.403-44.417 20.775-10.985 13.373-14.805 30.088-14.805 47.281 0 17.432 4.537 34.626 14.805 47.52 10.746 13.373 27.461 20.537 45.132 20.537 15.045 0 29.133-5.492 39.402-14.805v11.223z" fill="#fff"/><path d="m525.9 153.71v-63.997h-27.223v63.997c0 14.566-1.91 27.461-10.985 35.341-5.252 4.776-12.894 7.164-21.968 6.925-6.926-0.238-12.895-2.388-17.909-6.208-5.254-4.299-8.837-10.985-10.269-18.626-1.434-6.686-1.671-15.999-1.671-25.074v-56.355h-26.985v171.93h23.88v-53.968l0.716 0.717c10.029 8.835 23.403 13.133 35.581 13.611 13.373 0.716 27.939-4.06 38.208-12.656 16.237-14.089 18.863-32.715 18.625-55.639" fill="#fff"/><path d="m805.75 218.66-56.594-149.48c-4.775-13.134-10.983-23.64-19.343-29.611-8.118-6.447-17.192-7.163-27.7-7.163h-2.386v25.79l3.82-0.478c4.298-0.477 9.791 0 12.655 1.91 4.06 2.627 8.36 10.746 14.091 26.267l-52.058 132.77h27.222l37.253-98.383 36.297 98.383z" fill="#00b8b0"/><path d="m849.99 197.41v-54.207c0-10.268 0-17.431 3.103-22.207 2.866-5.015 8.357-8.119 13.851-8.597 6.446-0.716 14.326-0.477 21.252 0.717v-23.402c-9.552-2.627-24.835-3.104-33.909-0.955-11.7 3.104-20.536 8.596-25.551 18.148-5.015 9.791-5.492 21.253-5.492 34.625v112.95h26.746v-35.82h38.206v-21.252z" fill="#00b8b0"/><path d="m937.87 184.51c-3.583-4.537-5.731-10.269-6.926-16.238h67.579c-1.193 5.969-3.342 11.701-6.924 16.238-6.209 8.358-15.999 12.656-26.746 12.417-10.746 0.239-20.775-4.059-26.983-12.417m0-60.653c6.208-8.119 16.237-12.418 26.983-12.418 10.747 0 20.537 4.299 26.746 12.418 1.433 1.91 2.148 3.582 3.104 5.253l26.744-11.462c-2.148-3.821-4.535-7.403-7.401-10.746-12.179-14.089-30.566-21.492-49.193-20.775-18.864 0.716-36.774 7.164-48.474 21.253-10.985 13.611-15.522 30.088-15.283 46.803 0.477 17.432 4.537 33.67 15.283 46.804 11.7 14.088 29.61 21.252 48.474 21.252 18.866 0 36.537-6.925 48.237-21.252 10.746-13.134 15.283-29.85 15.283-46.804 0-2.388-0.238-5.014-0.478-7.402h-97.905c0.954-8.358 3.105-16.716 7.88-22.924" fill="#00b8b0"/><path d="m548.2 263.79h-26.984v25.312h26.984z" fill="#f1563f"/><path d="m646.61 141.21c0 6.287-2.418 13.056-6.528 17.892-5.32 6.286-12.573 8.945-19.342 8.945h-44.972v-52.465h41.345c8.944 0 15.716 1.209 21.517 7.495 5.079 4.593 7.738 11.122 7.98 18.133m-70.842 97.195v-44.729h43.28c4.833 0.967 11.121 4.11 14.505 8.946 3.144 3.868 4.836 8.704 4.594 13.781 0 5.561-2.176 10.639-5.804 14.507-3.867 4.593-9.911 7.495-15.713 7.495zm98.404-97.195c-0.242-11.122-3.869-22.002-10.638-30.948-7.012-8.704-16.441-14.748-26.596-17.891-6.527-1.934-13.057-2.66-19.583-2.66h-69.15v174.08h65.523c5.803 0 12.572-0.484 17.65-2.176 9.67-2.659 18.375-8.463 24.177-16.683 6.53-7.737 9.913-18.133 10.397-28.53 0.483-10.155-3.385-20.551-9.913-28.529-0.967-1.451-2.176-2.902-3.143-4.111 4.11-3.143 7.979-7.011 11.121-11.364 6.77-8.945 10.155-19.826 10.155-31.189" fill="#00b8b0"/></g></svg>