<?xml version="1.0" encoding="UTF-8"?>
<svg xmlns="http://www.w3.org/2000/svg" xmlns:xlink="http://www.w3.org/1999/xlink" viewBox="0 0 800 322.41">
  <defs>
    <style>
      .i {
        fill: url(#e);
      }

      .j {
        fill: url(#d);
      }

      .k {
        fill: url(#g);
      }

      .l {
        fill: url(#f);
      }

      .m {
        fill: url(#h);
      }

      .n {
        fill: #1f1f23;
      }
    </style>
    <linearGradient id="d" x1="387.2" y1="19.75" x2="489.23" y2="121.78" gradientTransform="matrix(1, 0, 0, 1, 0, 0)" gradientUnits="userSpaceOnUse">
      <stop offset=".05" stop-color="#36e063"/>
      <stop offset=".98" stop-color="#0bb6ff"/>
    </linearGradient>
    <linearGradient id="e" x1="339.23" y1="67.72" x2="441.26" y2="169.75" xlink:href="#d"/>
    <linearGradient id="f" x1="374.62" y1="32.32" x2="476.65" y2="134.35" xlink:href="#d"/>
    <linearGradient id="g" x1="313.93" y1="93.01" x2="415.96" y2="195.04" xlink:href="#d"/>
    <linearGradient id="h" x1="313.82" y1="93.13" x2="415.85" y2="195.16" xlink:href="#d"/>
  </defs>
  <g id="a" data-name="Layer 1"/>
  <g id="b" data-name="Layer 2">
    <g id="c" data-name="Layer 1">
      <g>
        <path class="n" d="M.36,315.46l2.92-6.16c4.1,3.71,11.13,6.39,18.23,6.39,9.55,0,13.65-3.71,13.65-8.52,0-13.5-33.47-4.97-33.47-25.5,0-8.52,6.63-15.78,21.15-15.78,6.47,0,13.18,1.74,17.76,4.89l-2.6,6.32c-4.82-3.08-10.26-4.5-15.15-4.5-9.39,0-13.42,3.95-13.42,8.76,0,13.5,33.46,5.05,33.46,25.34,0,8.45-6.79,15.71-21.39,15.71-8.45,0-16.73-2.84-21.15-6.95Z"/>
        <path class="n" d="M96.27,294.15c0-16.18,12.47-28.26,29.44-28.26s29.28,12,29.28,28.26-12.47,28.26-29.28,28.26-29.44-12.08-29.44-28.26Zm50.83,0c0-12.23-9.16-21.23-21.39-21.23s-21.55,9-21.55,21.23,9.16,21.23,21.55,21.23,21.39-9,21.39-21.23Z"/>
        <path class="n" d="M216.25,273.39v19.26h27.7v6.79h-27.7v22.34h-7.89v-55.25h38.99v6.87h-31.1Z"/>
        <path class="n" d="M319.66,273.39h-18.94v-6.87h45.7v6.87h-18.94v48.38h-7.81v-48.38Z"/>
        <path class="n" d="M483.61,266.53l-18.47,55.25h-8.29l-15.08-44.12-15.08,44.12h-8.45l-18.47-55.25h8.13l14.92,44.91,15.55-44.91h7.26l15.23,45.15,15.23-45.15h7.5Z"/>
        <path class="n" d="M580.55,307.97h-29.36l-6.08,13.81h-8.13l25.02-55.25h7.81l25.1,55.25h-8.29l-6.08-13.81Zm-2.76-6.32l-11.92-27.07-11.92,27.07h23.84Z"/>
        <path class="n" d="M685.22,321.78l-11.92-16.97c-1.11,.08-2.29,.16-3.47,.16h-13.65v16.81h-7.89v-55.25h21.55c14.37,0,23.05,7.26,23.05,19.26,0,8.52-4.42,14.68-12.16,17.44l13.1,18.55h-8.6Zm-.24-35.99c0-7.89-5.29-12.39-15.39-12.39h-13.42v24.86h13.42c10.1,0,15.39-4.58,15.39-12.47Z"/>
        <path class="n" d="M787.29,314.91v6.87h-40.09v-55.25h38.99v6.87h-31.1v16.97h27.7v6.71h-27.7v17.84h32.2Z"/>
        <path class="n" d="M40.04,40.25v45.72H120.12v32.13H40.04v63.03H0V8.12H130.75V40.25H40.04Z"/>
        <path class="n" d="M175.22,8.12h40.04V148.5h86.75v32.63h-126.79V8.12Z"/>
        <path class="n" d="M800,8.12l-56.6,173.01h-43.01l-38.06-117.15-39.3,117.15h-42.76L523.43,8.12h41.52l39.05,121.6,40.78-121.6h37.07l39.55,122.59,40.29-122.59h38.31Z"/>
        <g>
          <path class="j" d="M349.9,25.85l29.39,22.95c8.26-6.45,17.86-10.34,27.74-11.7L410.86,0c-22.04,.96-43.79,9.58-60.96,25.85Z"/>
          <path class="i" d="M357.46,86.77c1.29-9.52,4.94-18.75,10.94-26.8l-23.76-28.77c-15.33,16.97-23.41,38.16-24.28,59.58l37.09-4.01Z"/>
          <path class="l" d="M481.96,27.65C464.47,10.15,441.83,.95,418.92,0l4.07,37.11c12.11,1.67,23.8,7.1,33.1,16.41,11.35,11.35,17.02,26.23,17.02,41.1s-5.67,29.75-17.02,41.1c-9.22,9.22-20.76,14.62-32.74,16.36l-3.83,37.15c22.71-1.08,45.1-10.29,62.45-27.63,18.49-18.49,27.74-42.73,27.74-66.97s-9.25-48.48-27.74-66.97Z"/>
          <path class="k" d="M407.4,152.19c-9.52-1.25-18.75-4.85-26.83-10.81l-28.79,23.77c17.02,15.28,38.23,23.3,59.68,24.1l-4.06-37.06Z"/>
          <path class="m" d="M369.35,130.56c-6.56-8.31-10.49-17.98-11.87-27.95l-37.11-3.93c.94,22.15,9.64,44.02,26.05,61.24l22.93-29.36Z"/>
        </g>
      </g>
    </g>
  </g>
</svg>