<?xml version="1.0" encoding="UTF-8"?>
<svg xmlns="http://www.w3.org/2000/svg" viewBox="0 0 62.04 62.04">
  <defs>
    <style>
      .d, .e {
        fill: none;
      }

      .e {
        stroke: #231f20;
        stroke-linecap: round;
        stroke-linejoin: round;
        stroke-width: 2px;
      }
    </style>
  </defs>
  <g id="a" data-name="Layer 1"/>
  <g id="b" data-name="Layer 2">
    <g id="c" data-name="Layer 2">
      <g>
        <rect class="d" width="62.04" height="62.04"/>
        <g>
          <circle class="e" cx="31.02" cy="31.02" r="8.1"/>
          <g>
            <g>
              <line class="e" x1="31.02" y1="22.92" x2="31.02" y2="6.72"/>
              <line class="e" x1="34.74" y1="10.44" x2="31.02" y2="6.72"/>
              <line class="e" x1="27.3" y1="10.44" x2="31.02" y2="6.72"/>
            </g>
            <g>
              <line class="e" x1="31.02" y1="39.12" x2="31.02" y2="55.32"/>
              <line class="e" x1="27.3" y1="51.6" x2="31.02" y2="55.32"/>
              <line class="e" x1="34.74" y1="51.6" x2="31.02" y2="55.32"/>
            </g>
          </g>
          <g>
            <g>
              <line class="e" x1="24.01" y1="26.97" x2="9.98" y2="18.87"/>
              <line class="e" x1="15.06" y1="17.51" x2="9.98" y2="18.87"/>
              <line class="e" x1="11.34" y1="23.96" x2="9.98" y2="18.87"/>
            </g>
            <g>
              <line class="e" x1="38.04" y1="35.07" x2="52.07" y2="43.17"/>
              <line class="e" x1="46.98" y1="44.53" x2="52.07" y2="43.17"/>
              <line class="e" x1="50.7" y1="38.09" x2="52.07" y2="43.17"/>
            </g>
          </g>
          <g>
            <g>
              <line class="e" x1="24.01" y1="35.07" x2="9.98" y2="43.17"/>
              <line class="e" x1="11.34" y1="38.09" x2="9.98" y2="43.17"/>
              <line class="e" x1="15.06" y1="44.53" x2="9.98" y2="43.17"/>
            </g>
            <g>
              <line class="e" x1="38.04" y1="26.97" x2="52.07" y2="18.87"/>
              <line class="e" x1="50.7" y1="23.96" x2="52.07" y2="18.87"/>
              <line class="e" x1="46.98" y1="17.51" x2="52.07" y2="18.87"/>
            </g>
          </g>
        </g>
      </g>
    </g>
  </g>
</svg>