<?xml version="1.0" encoding="UTF-8"?>
<svg xmlns="http://www.w3.org/2000/svg" viewBox="0 0 62.04 62.04">
  <defs>
    <style>
      .d {
        fill: none;
      }

      .e {
        fill: #1f1f23;
      }
    </style>
  </defs>
  <g id="a" data-name="Layer 1"/>
  <g id="b" data-name="Layer 2">
    <g id="c" data-name="Layer 2">
      <g>
        <rect class="d" width="62.04" height="62.04"/>
        <path class="e" d="M37.05,6.72l2.36,21.52,10.44,1.99v1.55l-10.42,2.02-2.22,21.52h-1.55l-1.95-17.77-13.31,10.99-1.11-1.08,10.73-13.74-17.81-1.89v-1.56l17.62-1.91-10.98-13.3,1.08-1.11,13.72,10.72,1.85-17.94h1.55m0-2h-1.56c-1.02,0-1.88,.78-1.98,1.8l-1.48,14.35-10.87-8.49c-.36-.28-.8-.42-1.23-.42-.52,0-1.04,.2-1.43,.61l-1.08,1.11c-.71,.73-.76,1.88-.11,2.67l8.62,10.44-13.93,1.51c-1.02,.11-1.79,.97-1.78,1.99v1.56c0,1.02,.77,1.88,1.79,1.99l14.22,1.51-8.51,10.9c-.63,.8-.55,1.95,.18,2.66l1.11,1.08c.39,.38,.89,.57,1.4,.57,.45,0,.9-.15,1.27-.46l10.45-8.63,1.54,14.09c.11,1.01,.97,1.78,1.99,1.78h1.56c1.02,0,1.88-.78,1.98-1.8l2.07-20.04,8.97-1.73c.94-.18,1.62-1.01,1.62-1.97v-1.55c0-.96-.68-1.78-1.63-1.96l-8.99-1.72-2.2-20.05c-.11-1.01-.97-1.78-1.99-1.78h0Z"/>
      </g>
    </g>
  </g>
</svg>